<svg width="700" height="882" viewBox="0 0 700 882" fill="none" xmlns="http://www.w3.org/2000/svg">
<path d="M86.5096 866.9L104.397 793.203H114.389L116.671 805.476L97.6121 880.797H86.8796L86.5096 866.9ZM77.3191 793.203L92.1225 866.9L90.8889 880.797H78.9228L59 793.203H77.3191ZM132.4 866.599L147.018 793.203H165.337L145.476 880.797H133.51L132.4 866.599ZM120.002 793.203L138.013 867.201L137.519 880.797H126.787L107.604 805.416L110.072 793.203H120.002Z" fill="white"/>
<path d="M209.192 808.183L184.767 880.797H165.091L198.46 793.203H210.981L209.192 808.183ZM229.485 880.797L204.998 808.183L203.024 793.203H215.669L249.223 880.797H229.485ZM228.375 848.19V862.328H180.943V848.19H228.375Z" fill="white"/>
<path d="M257.55 793.203H291.043C297.91 793.203 303.81 794.206 308.745 796.211C313.72 798.217 317.545 801.184 320.217 805.115C322.89 809.045 324.227 813.878 324.227 819.614C324.227 824.306 323.404 828.337 321.76 831.706C320.156 835.035 317.874 837.822 314.913 840.068C311.993 842.274 308.56 844.039 304.612 845.362L298.753 848.37H269.639L269.516 834.293H291.166C294.414 834.293 297.108 833.731 299.246 832.608C301.384 831.485 302.988 829.921 304.057 827.916C305.167 825.91 305.723 823.584 305.723 820.937C305.723 818.13 305.188 815.703 304.119 813.658C303.05 811.612 301.425 810.048 299.246 808.965C297.067 807.882 294.332 807.341 291.043 807.341H276.054V880.797H257.55V793.203ZM307.758 880.797L287.28 841.753L306.833 841.632L327.557 879.955V880.797H307.758Z" fill="white"/>
<path d="M385.229 857.876C385.229 856.311 384.982 854.908 384.489 853.664C384.036 852.381 383.173 851.218 381.898 850.175C380.623 849.092 378.835 848.029 376.532 846.987C374.229 845.944 371.248 844.861 367.588 843.738C363.517 842.455 359.652 841.011 355.992 839.406C352.374 837.802 349.166 835.937 346.37 833.811C343.615 831.646 341.436 829.139 339.832 826.291C338.269 823.444 337.488 820.135 337.488 816.365C337.488 812.715 338.31 809.406 339.955 806.439C341.6 803.43 343.903 800.864 346.864 798.738C349.824 796.572 353.319 794.908 357.349 793.745C361.42 792.582 365.882 792 370.734 792C377.354 792 383.132 793.163 388.066 795.489C393.001 797.816 396.825 801.004 399.539 805.055C402.294 809.106 403.671 813.738 403.671 818.952H385.291C385.291 816.385 384.735 814.139 383.625 812.214C382.556 810.249 380.911 808.705 378.691 807.582C376.511 806.459 373.756 805.897 370.426 805.897C367.218 805.897 364.545 806.378 362.407 807.341C360.269 808.263 358.665 809.527 357.596 811.131C356.527 812.695 355.992 814.46 355.992 816.425C355.992 817.909 356.362 819.253 357.103 820.456C357.884 821.659 359.035 822.782 360.557 823.825C362.078 824.868 363.949 825.85 366.17 826.773C368.39 827.695 370.96 828.598 373.88 829.48C378.773 830.924 383.07 832.548 386.771 834.353C390.513 836.158 393.638 838.183 396.146 840.429C398.655 842.675 400.546 845.222 401.821 848.07C403.096 850.917 403.733 854.146 403.733 857.755C403.733 861.566 402.972 864.975 401.451 867.983C399.929 870.991 397.729 873.537 394.851 875.623C391.973 877.709 388.539 879.293 384.55 880.376C380.562 881.459 376.1 882 371.166 882C366.725 882 362.345 881.439 358.028 880.316C353.71 879.152 349.783 877.408 346.247 875.082C342.751 872.755 339.955 869.787 337.858 866.178C335.761 862.568 334.712 858.297 334.712 853.364H353.278C353.278 856.091 353.71 858.397 354.574 860.282C355.437 862.167 356.65 863.691 358.213 864.854C359.816 866.017 361.708 866.86 363.887 867.381C366.108 867.902 368.534 868.163 371.166 868.163C374.373 868.163 377.005 867.722 379.061 866.84C381.158 865.957 382.7 864.734 383.687 863.17C384.715 861.606 385.229 859.841 385.229 857.876Z" fill="white"/>
<path d="M456.47 793.203V880.797H438.028V793.203H456.47ZM484.103 793.203V807.341H410.826V793.203H484.103Z" fill="white"/>
<path d="M524.504 808.183L500.078 880.797H480.402L513.771 793.203H526.292L524.504 808.183ZM544.797 880.797L520.309 808.183L518.336 793.203H530.98L564.534 880.797H544.797ZM543.686 848.19V862.328H496.254V848.19H543.686Z" fill="white"/>
<path d="M605.367 793.203V880.797H586.925V793.203H605.367ZM633 793.203V807.341H559.723V793.203H633Z" fill="white"/>
<g clip-path="url(#clip0_0_1)">
<path d="M490 647.269V700H385V647.269V282.768H385.644C386.288 213.559 400.46 52.7307 437.178 0C471.319 55.3672 488.712 214.218 490 282.768V647.269V647.269Z" fill="#DE8215"/>
<path d="M700 276.974V313.816H665.725V700L560.264 646.053V313.816H525.989V276.974H580.697L591.243 72.3684C580.697 65.1316 574.106 53.2895 574.106 39.4737C574.106 17.7632 591.902 0 612.994 0C634.746 0 651.883 17.7632 651.883 39.4737C651.883 53.2895 645.292 65.1316 634.746 72.3684L645.292 276.974H700Z" fill="#DE8215"/>
<path d="M290.019 0H26.3653C11.8644 0 0 11.8421 0 25.6579V288.816C0 303.289 11.8644 314.474 25.7062 314.474H289.36C303.861 314.474 315.066 302.632 315.066 288.816V25.6579C315.725 11.8421 304.52 0 290.019 0ZM156.874 200C133.804 200 115.348 181.579 115.348 158.553C115.348 135.526 133.804 117.105 156.874 117.105C179.944 117.105 198.399 135.526 198.399 158.553C198.399 181.579 179.944 200 156.874 200Z" fill="#DE8215"/>
<path d="M290.678 384.211H26.3653C11.8644 384.211 0 396.053 0 410.526V675C0 689.474 11.8644 701.316 26.3653 701.316H291.337C305.838 701.316 317.702 689.474 317.702 675V409.868C317.043 395.395 305.179 384.211 290.678 384.211ZM73.823 667.105C50.7533 667.105 32.2976 648.684 32.2976 625.658C32.2976 602.632 50.7533 584.211 73.823 584.211C96.8927 584.211 115.348 602.632 115.348 625.658C115.348 648.684 96.8927 667.105 73.823 667.105ZM157.533 583.553C134.463 583.553 116.008 565.132 116.008 542.105C116.008 519.079 134.463 500.658 157.533 500.658C180.603 500.658 199.058 519.079 199.058 542.105C199.718 565.132 180.603 583.553 157.533 583.553ZM241.243 500.658C218.173 500.658 199.718 482.237 199.718 459.211C199.718 436.184 218.173 417.763 241.243 417.763C264.313 417.763 282.768 436.184 282.768 459.211C283.428 481.579 264.313 500.658 241.243 500.658Z" fill="#DE8215"/>
</g>
<defs>
<clipPath id="clip0_0_1">
<rect width="700" height="700" fill="white"/>
</clipPath>
</defs>
</svg>
