<svg width="451" height="450" viewBox="0 0 451 450" fill="none" xmlns="http://www.w3.org/2000/svg">
<path opacity="0.956" fill-rule="evenodd" clip-rule="evenodd" d="M201.475 0C216.142 0 230.808 0 245.475 0C327.519 9.88946 388.019 51.2228 426.975 124C466.034 212.859 456.034 295.526 396.975 372C360.917 413.622 315.417 438.455 260.475 446.5C172.899 458.541 101.399 430.374 45.9752 362C42.3082 370.667 38.6422 379.333 34.9752 388C31.6682 384.885 30.1682 381.051 30.4752 376.5C31.7652 366.593 33.4322 356.759 35.4752 347C32.3132 341.353 30.3132 335.353 29.4752 329C30.8482 328.843 32.1822 329.01 33.4752 329.5C36.8452 332.535 39.8452 335.868 42.4752 339.5C53.6042 339.605 64.6042 340.605 75.4752 342.5C77.1882 343.878 78.5222 345.545 79.4752 347.5C70.6702 349.866 62.0032 352.532 53.4752 355.5C104.296 417.226 169.629 443.559 249.475 434.5C323.602 421.353 377.436 381.187 410.975 314C447.292 219.562 428.792 137.728 355.475 68.5C307.978 30.0341 253.645 14.0341 192.475 20.5C125.993 31.3031 74.4932 64.8031 37.9752 121C5.0479 180.887 0.547903 242.887 24.4752 307C23.7982 311.493 21.1312 313.16 16.4752 312C0.0966034 269.211 -4.0701 225.211 3.9752 180C18.1402 117.866 51.3062 68.6996 103.475 32.5C133.54 13.5336 166.207 2.70025 201.475 0Z" fill="#2CA89A"/>
<path opacity="0.985" fill-rule="evenodd" clip-rule="evenodd" d="M205.475 50.9999C221.705 50.9147 237.705 52.7481 253.475 56.4999C255.307 57.2484 256.974 58.2484 258.475 59.4999C269.588 59.4605 280.588 60.4605 291.475 62.4999C299.58 65.6057 305.414 71.1057 308.975 78.9999C313.036 87.8505 316.702 96.8505 319.975 106C325.329 112.018 331.329 117.352 337.975 122C339.839 126.591 341.505 131.257 342.975 136C347.924 141.324 354.091 144.157 361.475 144.5C365.674 149.034 370.174 153.201 374.975 157C379.272 164.559 381.939 172.559 382.975 181C377.095 182.159 371.595 180.992 366.475 177.5C361.331 172.202 356.664 166.535 352.475 160.5C346.195 157.682 339.862 155.015 333.475 152.5C319.608 137.588 304.608 136.254 288.475 148.5C281.759 154.217 274.759 159.55 267.475 164.5C264.857 169.451 261.191 173.451 256.475 176.5C249.013 178.039 241.68 177.373 234.475 174.5C229.808 174.167 225.142 173.833 220.475 173.5C218.52 172.547 216.853 171.213 215.475 169.5C211.56 166.67 208.893 167.503 207.475 172C208.444 174.802 210.277 176.802 212.975 178C213.314 181.987 211.481 183.487 207.475 182.5C195.345 176.314 193.011 178.481 200.475 189C198.533 196.786 196.7 196.786 194.975 189C192.625 186.817 190.458 184.484 188.475 182C185.15 180.493 182.816 181.493 181.475 185C182.402 189.45 183.736 193.783 185.475 198C182.856 202.809 178.856 204.642 173.475 203.5C170.009 200.034 167.342 196.034 165.475 191.5C167.629 188.012 170.463 185.179 173.975 183C174.633 179.475 173.466 176.641 170.475 174.5C166.559 173.398 162.559 172.731 158.475 172.5C158.018 172.086 157.684 171.586 157.475 171C160.066 169.12 162.566 167.12 164.975 165C164.975 163 164.975 161 164.975 159C166.93 156.589 168.764 154.089 170.475 151.5C168.959 149.603 168.292 147.436 168.475 145C171.135 145.847 173.801 146.347 176.475 146.5C179.608 141.911 180.108 137.078 177.975 132C176.642 130.667 175.308 130.667 173.975 132C173.09 136.339 171.257 140.173 168.475 143.5C165.447 144.64 163.28 143.806 161.975 141C160.58 129.75 162.746 119.25 168.475 109.5C161.782 105.324 154.449 102.99 146.475 102.5C143.618 98.1432 139.952 94.6432 135.475 91.9999C128.676 93.9871 122.176 96.6538 115.975 99.9999C115.287 93.0998 116.287 86.4331 118.975 79.9999C129.9 73.4526 141.067 67.2859 152.475 61.4999C165.536 61.259 178.536 60.259 191.475 58.4999C197.214 57.7999 201.881 55.2999 205.475 50.9999Z" fill="#2CA89A"/>
<path opacity="0.981" fill-rule="evenodd" clip-rule="evenodd" d="M82.4751 116C92.1281 118.076 100.628 122.41 107.975 129C109.394 134.262 111.394 139.262 113.975 144C120.691 149.717 127.691 155.05 134.975 160C134.159 166.309 131.659 171.976 127.475 177C130.269 182.39 133.936 183.224 138.475 179.5C144.107 177.741 149.774 177.741 155.475 179.5C160.991 183.764 161.824 188.931 157.975 195C151.018 205.624 142.351 214.624 131.975 222C130.223 225.172 128.223 228.172 125.975 231C125.749 237.045 126.249 243.045 127.475 249C125.776 249.16 124.109 248.994 122.475 248.5C119.943 244.942 117.776 241.109 115.975 237C110.151 233.569 103.984 233.069 97.4751 235.5C96.8081 236.5 96.1421 237.5 95.4751 238.5C96.2531 245.73 99.5861 251.397 105.475 255.5C123.957 263.66 142.79 270.827 161.975 277C163.883 284.31 163.883 291.644 161.975 299C158.365 308.497 154.365 317.831 149.975 327C145.452 342.66 145.619 358.327 150.475 374C150.367 374.942 150.034 375.775 149.475 376.5C146.192 377.243 143.192 376.576 140.475 374.5C133.374 366.789 126.874 358.622 120.975 350C119.682 337.249 114.515 326.416 105.475 317.5C94.2621 312.21 83.2621 306.543 72.4751 300.5C70.4051 299.552 68.9051 298.052 67.9751 296C67.8911 284.508 66.8911 273.175 64.9751 262C70.9161 257.285 77.0831 252.952 83.4751 249C79.7151 243.904 75.0481 239.904 69.4751 237C66.5321 239.263 63.6991 239.263 60.9751 237C60.2031 232.61 60.3691 228.277 61.4751 224C59.1761 216.803 57.5091 209.469 56.4751 202C58.6561 192.618 61.1561 183.285 63.9751 174C65.7961 160.12 62.9631 147.286 55.4751 135.5C57.5961 127.918 62.2621 122.584 69.4751 119.5C73.8941 118.148 78.2271 116.981 82.4751 116Z" fill="#2CA89A"/>
<path opacity="0.984" fill-rule="evenodd" clip-rule="evenodd" d="M170.475 209C181.827 207.293 191.66 210.293 199.975 218C199.435 225.761 202.602 231.261 209.475 234.5C217.112 234.315 224.445 235.649 231.475 238.5C234.808 238.833 238.142 239.167 241.475 239.5C240.46 257.486 246.96 271.986 260.975 283C261.61 285.135 261.276 287.135 259.975 289C250.736 297.565 240.402 304.565 228.975 310C226.551 314.694 225.218 319.694 224.975 325C219.883 328.798 214.383 331.965 208.475 334.5C202.784 338.013 197.451 342.013 192.475 346.5C182.146 347.749 172.146 350.249 162.475 354C160.601 354.11 159.101 353.444 157.975 352C154.763 346.7 154.763 341.366 157.975 336C155.976 322.581 160.309 311.914 170.975 304C173.009 296.099 174.009 288.099 173.975 280C171.34 273.693 167.507 268.193 162.475 263.5C155.804 260.424 148.971 257.924 141.975 256C138.685 249.462 136.185 242.629 134.475 235.5C138.785 224.813 146.452 217.479 157.475 213.5C161.955 212.064 166.288 210.564 170.475 209Z" fill="#2CA89A"/>
<path opacity="0.953" fill-rule="evenodd" clip-rule="evenodd" d="M271.475 279C277.485 279.922 282.652 282.589 286.975 287C284.347 298.447 287.347 308.114 295.975 316C296.681 318.471 296.348 320.805 294.975 323C292.122 325.552 289.622 328.385 287.475 331.5C284.093 332.324 280.759 332.157 277.475 331C276.487 328.05 275.654 325.05 274.975 322C274.072 320.799 272.906 319.965 271.475 319.5C262.855 319.12 254.355 318.953 245.975 319C245.34 316.865 245.674 314.865 246.975 313C254.561 308.581 261.061 302.914 266.475 296C263.718 294.412 262.885 292.079 263.975 289C265.281 284.699 267.781 281.366 271.475 279Z" fill="#2CA89A"/>
<path opacity="0.976" fill-rule="evenodd" clip-rule="evenodd" d="M251.475 324C255.486 324.002 259.153 325.168 262.475 327.5C267.276 331.299 271.776 335.466 275.975 340C282.193 351.174 281.86 362.174 274.975 373C267.664 379.155 259.998 384.821 251.975 390C250.388 395.672 247.888 400.839 244.475 405.5C242.142 406.167 239.808 406.167 237.475 405.5C228.698 399.28 219.031 394.947 208.475 392.5C202.1 389.453 196.267 385.619 190.975 381C189.763 374.073 186.596 368.24 181.475 363.5C163.144 360.022 163.144 356.856 181.475 354C186.345 355.102 190.678 357.268 194.475 360.5C195.475 361.167 196.475 361.167 197.475 360.5C200.732 351.987 205.732 344.654 212.475 338.5C222.48 333.054 233.146 329.387 244.475 327.5C247.149 326.83 249.482 325.663 251.475 324Z" fill="#2CA89A"/>
<path opacity="0.971" fill-rule="evenodd" clip-rule="evenodd" d="M300.475 330C303.295 329.748 305.961 330.248 308.475 331.5C314.008 336.698 319.175 342.198 323.975 348C325.857 352.488 327.19 357.155 327.975 362C328.642 362.667 329.308 363.333 329.975 364C330.473 367.317 330.64 370.65 330.475 374C327.731 373.295 325.064 373.295 322.475 374C324.556 377.248 327.389 379.581 330.975 381C331.473 384.387 329.973 386.553 326.475 387.5C323.001 387.801 319.667 388.634 316.475 390C311.34 398.341 304.007 401.841 294.475 400.5C289.362 395.387 284.196 390.221 278.975 385C278.308 383.667 278.308 382.333 278.975 381C283.812 376.339 287.645 371.006 290.475 365C286.811 357.429 285.644 349.429 286.975 341C290.794 336.333 295.294 332.666 300.475 330Z" fill="#2CA89A"/>
</svg>
