<svg xmlns="http://www.w3.org/2000/svg" xmlns:xlink="http://www.w3.org/1999/xlink" version="1.1" width="636px" height="646px" style="shape-rendering:geometricPrecision; text-rendering:geometricPrecision; image-rendering:optimizeQuality; fill-rule:evenodd; clip-rule:evenodd">
<g><path style="opacity:0.956" fill="#2ca89a" d="M 294.5,-0.5 C 309.167,-0.5 323.833,-0.5 338.5,-0.5C 420.544,9.38946 481.044,50.7228 520,123.5C 559.059,212.359 549.059,295.026 490,371.5C 453.942,413.122 408.442,437.955 353.5,446C 265.924,458.041 194.424,429.874 139,361.5C 135.333,370.167 131.667,378.833 128,387.5C 124.693,384.385 123.193,380.551 123.5,376C 124.79,366.093 126.457,356.259 128.5,346.5C 125.338,340.853 123.338,334.853 122.5,328.5C 123.873,328.343 125.207,328.51 126.5,329C 129.87,332.035 132.87,335.368 135.5,339C 146.629,339.105 157.629,340.105 168.5,342C 170.213,343.378 171.547,345.045 172.5,347C 163.695,349.366 155.028,352.032 146.5,355C 197.321,416.726 262.654,443.059 342.5,434C 416.627,420.853 470.461,380.687 504,313.5C 540.317,219.062 521.817,137.228 448.5,68C 401.003,29.5341 346.67,13.5341 285.5,20C 219.018,30.8031 167.518,64.3031 131,120.5C 98.0727,180.387 93.5727,242.387 117.5,306.5C 116.823,310.993 114.156,312.66 109.5,311.5C 93.1214,268.711 88.9547,224.711 97,179.5C 111.165,117.366 144.331,68.1996 196.5,32C 226.565,13.0336 259.232,2.20025 294.5,-0.5 Z"/></g>
<g><path style="opacity:0.985" fill="#2ca89a" d="M 298.5,50.5 C 314.73,50.4148 330.73,52.2482 346.5,56C 348.332,56.7485 349.999,57.7485 351.5,59C 362.613,58.9606 373.613,59.9606 384.5,62C 392.605,65.1058 398.439,70.6058 402,78.5C 406.061,87.3506 409.727,96.3506 413,105.5C 418.354,111.518 424.354,116.852 431,121.5C 432.864,126.091 434.53,130.757 436,135.5C 440.949,140.824 447.116,143.657 454.5,144C 458.699,148.534 463.199,152.701 468,156.5C 472.297,164.059 474.964,172.059 476,180.5C 470.12,181.659 464.62,180.492 459.5,177C 454.356,171.702 449.689,166.035 445.5,160C 439.22,157.182 432.887,154.515 426.5,152C 412.633,137.088 397.633,135.754 381.5,148C 374.784,153.717 367.784,159.05 360.5,164C 357.882,168.951 354.216,172.951 349.5,176C 342.038,177.539 334.705,176.873 327.5,174C 322.833,173.667 318.167,173.333 313.5,173C 311.545,172.047 309.878,170.713 308.5,169C 304.585,166.17 301.918,167.003 300.5,171.5C 301.469,174.302 303.302,176.302 306,177.5C 306.339,181.487 304.506,182.987 300.5,182C 288.37,175.814 286.036,177.981 293.5,188.5C 291.558,196.286 289.725,196.286 288,188.5C 285.65,186.317 283.483,183.984 281.5,181.5C 278.175,179.993 275.841,180.993 274.5,184.5C 275.427,188.95 276.761,193.283 278.5,197.5C 275.881,202.309 271.881,204.142 266.5,203C 263.034,199.534 260.367,195.534 258.5,191C 260.654,187.512 263.488,184.679 267,182.5C 267.658,178.975 266.491,176.141 263.5,174C 259.584,172.898 255.584,172.231 251.5,172C 251.043,171.586 250.709,171.086 250.5,170.5C 253.091,168.62 255.591,166.62 258,164.5C 258,162.5 258,160.5 258,158.5C 259.955,156.089 261.789,153.589 263.5,151C 261.984,149.103 261.317,146.936 261.5,144.5C 264.16,145.347 266.826,145.847 269.5,146C 272.633,141.411 273.133,136.578 271,131.5C 269.667,130.167 268.333,130.167 267,131.5C 266.115,135.839 264.282,139.673 261.5,143C 258.472,144.14 256.305,143.306 255,140.5C 253.605,129.25 255.771,118.75 261.5,109C 254.807,104.824 247.474,102.49 239.5,102C 236.643,97.6433 232.977,94.1433 228.5,91.5C 221.701,93.4872 215.201,96.1539 209,99.5C 208.312,92.5999 209.312,85.9332 212,79.5C 222.925,72.9527 234.092,66.786 245.5,61C 258.561,60.7591 271.561,59.7591 284.5,58C 290.239,57.3 294.906,54.8 298.5,50.5 Z"/></g>
<g><path style="opacity:0.981" fill="#2ca89a" d="M 175.5,115.5 C 185.153,117.576 193.653,121.91 201,128.5C 202.419,133.762 204.419,138.762 207,143.5C 213.716,149.217 220.716,154.55 228,159.5C 227.184,165.809 224.684,171.476 220.5,176.5C 223.294,181.89 226.961,182.724 231.5,179C 237.132,177.241 242.799,177.241 248.5,179C 254.016,183.264 254.849,188.431 251,194.5C 244.043,205.124 235.376,214.124 225,221.5C 223.248,224.672 221.248,227.672 219,230.5C 218.774,236.545 219.274,242.545 220.5,248.5C 218.801,248.66 217.134,248.494 215.5,248C 212.968,244.442 210.801,240.609 209,236.5C 203.176,233.069 197.009,232.569 190.5,235C 189.833,236 189.167,237 188.5,238C 189.278,245.23 192.611,250.897 198.5,255C 216.982,263.16 235.815,270.327 255,276.5C 256.908,283.81 256.908,291.144 255,298.5C 251.39,307.997 247.39,317.331 243,326.5C 238.477,342.16 238.644,357.827 243.5,373.5C 243.392,374.442 243.059,375.275 242.5,376C 239.217,376.743 236.217,376.076 233.5,374C 226.399,366.289 219.899,358.122 214,349.5C 212.707,336.749 207.54,325.916 198.5,317C 187.287,311.71 176.287,306.043 165.5,300C 163.43,299.052 161.93,297.552 161,295.5C 160.916,284.008 159.916,272.675 158,261.5C 163.941,256.785 170.108,252.452 176.5,248.5C 172.74,243.404 168.073,239.404 162.5,236.5C 159.557,238.763 156.724,238.763 154,236.5C 153.228,232.11 153.394,227.777 154.5,223.5C 152.201,216.303 150.534,208.969 149.5,201.5C 151.681,192.118 154.181,182.785 157,173.5C 158.821,159.62 155.988,146.786 148.5,135C 150.621,127.418 155.287,122.084 162.5,119C 166.919,117.648 171.252,116.481 175.5,115.5 Z"/></g>
<g><path style="opacity:0.984" fill="#2ca89a" d="M 263.5,208.5 C 274.852,206.793 284.685,209.793 293,217.5C 292.46,225.261 295.627,230.761 302.5,234C 310.137,233.815 317.47,235.149 324.5,238C 327.833,238.333 331.167,238.667 334.5,239C 333.485,256.986 339.985,271.486 354,282.5C 354.635,284.635 354.301,286.635 353,288.5C 343.761,297.065 333.427,304.065 322,309.5C 319.576,314.194 318.243,319.194 318,324.5C 312.908,328.298 307.408,331.465 301.5,334C 295.809,337.513 290.476,341.513 285.5,346C 275.171,347.249 265.171,349.749 255.5,353.5C 253.626,353.61 252.126,352.944 251,351.5C 247.788,346.2 247.788,340.866 251,335.5C 249.001,322.081 253.334,311.414 264,303.5C 266.034,295.599 267.034,287.599 267,279.5C 264.365,273.193 260.532,267.693 255.5,263C 248.829,259.924 241.996,257.424 235,255.5C 231.71,248.962 229.21,242.129 227.5,235C 231.81,224.313 239.477,216.979 250.5,213C 254.98,211.564 259.313,210.064 263.5,208.5 Z"/></g>
<g><path style="opacity:0.953" fill="#2ca89a" d="M 364.5,278.5 C 370.51,279.422 375.677,282.089 380,286.5C 377.372,297.947 380.372,307.614 389,315.5C 389.706,317.971 389.373,320.305 388,322.5C 385.147,325.052 382.647,327.885 380.5,331C 377.118,331.824 373.784,331.657 370.5,330.5C 369.512,327.55 368.679,324.55 368,321.5C 367.097,320.299 365.931,319.465 364.5,319C 355.88,318.62 347.38,318.453 339,318.5C 338.365,316.365 338.699,314.365 340,312.5C 347.586,308.081 354.086,302.414 359.5,295.5C 356.743,293.912 355.91,291.579 357,288.5C 358.306,284.199 360.806,280.866 364.5,278.5 Z"/></g>
<g><path style="opacity:0.976" fill="#2ca89a" d="M 344.5,323.5 C 348.511,323.502 352.178,324.668 355.5,327C 360.301,330.799 364.801,334.966 369,339.5C 375.218,350.674 374.885,361.674 368,372.5C 360.689,378.655 353.023,384.321 345,389.5C 343.413,395.172 340.913,400.339 337.5,405C 335.167,405.667 332.833,405.667 330.5,405C 321.723,398.78 312.056,394.447 301.5,392C 295.125,388.953 289.292,385.119 284,380.5C 282.788,373.573 279.621,367.74 274.5,363C 256.169,359.522 256.169,356.356 274.5,353.5C 279.37,354.602 283.703,356.768 287.5,360C 288.5,360.667 289.5,360.667 290.5,360C 293.757,351.487 298.757,344.154 305.5,338C 315.505,332.554 326.171,328.887 337.5,327C 340.174,326.33 342.507,325.163 344.5,323.5 Z"/></g>
<g><path style="opacity:0.971" fill="#2ca89a" d="M 393.5,329.5 C 396.32,329.248 398.986,329.748 401.5,331C 407.033,336.198 412.2,341.698 417,347.5C 418.882,351.988 420.215,356.655 421,361.5C 421.667,362.167 422.333,362.833 423,363.5C 423.498,366.817 423.665,370.15 423.5,373.5C 420.756,372.795 418.089,372.795 415.5,373.5C 417.581,376.748 420.414,379.081 424,380.5C 424.498,383.887 422.998,386.053 419.5,387C 416.026,387.301 412.692,388.134 409.5,389.5C 404.365,397.841 397.032,401.341 387.5,400C 382.387,394.887 377.221,389.721 372,384.5C 371.333,383.167 371.333,381.833 372,380.5C 376.837,375.839 380.67,370.506 383.5,364.5C 379.836,356.929 378.669,348.929 380,340.5C 383.819,335.833 388.319,332.166 393.5,329.5 Z"/></g>
<g><path style="opacity:0.929" fill="#29a79a" d="M 282.5,498.5 C 286.833,498.5 291.167,498.5 295.5,498.5C 295.667,535.502 295.5,572.502 295,609.5C 290.934,610.464 286.767,610.797 282.5,610.5C 282.5,573.167 282.5,535.833 282.5,498.5 Z"/></g>
<g><path style="opacity:0.928" fill="#29a79a" d="M 406.5,498.5 C 410.833,498.5 415.167,498.5 419.5,498.5C 419.667,535.502 419.5,572.502 419,609.5C 414.934,610.464 410.767,610.797 406.5,610.5C 406.666,606.486 406.499,602.486 406,598.5C 397.959,609.52 387.125,613.686 373.5,611C 363.915,608.417 357.082,602.584 353,593.5C 347.61,577.734 348.61,562.4 356,547.5C 367.158,532.93 381.325,529.096 398.5,536C 401.667,537.833 404.167,540.333 406,543.5C 406.5,528.504 406.667,513.504 406.5,498.5 Z M 378.5,544.5 C 392.946,541.96 402.113,547.627 406,561.5C 407.08,570.326 406.413,578.993 404,587.5C 396.419,600.137 385.919,603.303 372.5,597C 364.336,588.839 361.169,579.006 363,567.5C 364.109,556.925 369.276,549.258 378.5,544.5 Z"/></g>
<g><path style="opacity:0.916" fill="#29a79a" d="M 320.5,500.5 C 332.47,499.632 335.804,504.465 330.5,515C 322.819,518.493 318.153,516.16 316.5,508C 316.927,504.977 318.261,502.477 320.5,500.5 Z"/></g>
<g><path style="opacity:0.921" fill="#fdfefe" d="M 43.5,503.5 C 51.84,503.334 60.1733,503.5 68.5,504C 74.0378,504.291 79.2045,505.791 84,508.5C 84.4992,513.155 84.6658,517.821 84.5,522.5C 78.0973,519.644 71.4306,517.477 64.5,516C 33.2142,512.62 16.5475,526.62 14.5,558C 17.4915,591.513 35.4915,604.513 68.5,597C 69.8333,596.333 71.1667,595.667 72.5,595C 73.4851,585.583 73.8184,576.083 73.5,566.5C 65.8333,566.5 58.1667,566.5 50.5,566.5C 50.5,562.5 50.5,558.5 50.5,554.5C 62.5,554.5 74.5,554.5 86.5,554.5C 86.8248,570.744 86.4914,586.911 85.5,603C 58.6316,617.697 34.1316,615.197 12,595.5C 0.250018,578.545 -2.41665,559.212 4,537.5C 10.918,519.447 24.0846,508.114 43.5,503.5 Z"/></g>
<g><path style="opacity:0.911" fill="#fcfefd" d="M 135.5,532.5 C 159.585,530.762 173.418,541.762 177,565.5C 178.945,597.922 163.778,613.089 131.5,611C 117.259,608.017 108.092,599.183 104,584.5C 99.6041,568.436 103.104,554.27 114.5,542C 120.665,536.787 127.665,533.62 135.5,532.5 Z M 133.5,544.5 C 153.883,542.545 164.217,551.878 164.5,572.5C 164.368,576.363 163.368,579.863 161.5,583C 161.957,583.414 162.291,583.914 162.5,584.5C 155.134,600.03 143.468,604.196 127.5,597C 119.599,590.662 115.932,582.328 116.5,572C 116.267,558.928 121.934,549.762 133.5,544.5 Z"/></g>
<g><path style="opacity:0.94" fill="#28a79a" d="M 222.5,532.5 C 245.246,530.438 259.08,540.438 264,562.5C 267.324,580.204 262.158,594.704 248.5,606C 234.981,612.866 221.314,613.2 207.5,607C 198.423,601.376 192.923,593.21 191,582.5C 188.609,569.237 190.942,556.904 198,545.5C 204.918,538.626 213.085,534.293 222.5,532.5 Z M 220.5,544.5 C 240.652,542.481 250.985,551.647 251.5,572C 250.057,596.55 237.724,604.884 214.5,597C 203.213,586.16 200.38,573.326 206,558.5C 208.774,551.557 213.607,546.89 220.5,544.5 Z"/></g>
<g><path style="opacity:0.936" fill="#29a79a" d="M 463.5,532.5 C 472.499,531.599 480.832,533.432 488.5,538C 492.324,542.155 494.824,546.988 496,552.5C 496.5,571.83 496.667,591.164 496.5,610.5C 492.486,610.666 488.486,610.499 484.5,610C 483.712,606.924 483.212,603.758 483,600.5C 471.9,612.571 459.067,614.738 444.5,607C 434.624,596.122 433.957,584.622 442.5,572.5C 445.673,570.413 449.006,568.579 452.5,567C 462.451,564.841 472.451,563.007 482.5,561.5C 484.24,550.01 479.24,544.344 467.5,544.5C 459.527,544.498 452.193,547.165 445.5,552.5C 444.339,548.205 444.172,543.871 445,539.5C 450.867,536.049 457.034,533.716 463.5,532.5 Z M 479.5,572.5 C 480.833,572.5 482.167,572.5 483.5,572.5C 485.737,584.332 481.737,593.166 471.5,599C 464.298,601.638 457.798,600.472 452,595.5C 448.095,586.292 450.595,579.792 459.5,576C 466.333,574.986 473,573.819 479.5,572.5 Z"/></g>
<g><path style="opacity:0.93" fill="#29a79a" d="M 635.5,581.5 C 635.5,586.833 635.5,592.167 635.5,597.5C 625.782,609.577 613.115,614.077 597.5,611C 594.107,610.202 590.774,609.202 587.5,608C 586.24,605.787 585.574,603.287 585.5,600.5C 585.833,598.167 586.167,595.833 586.5,593.5C 597.529,601.15 609.029,602.15 621,596.5C 623.833,590.599 622.667,585.765 617.5,582C 609.5,578.333 601.5,574.667 593.5,571C 584.649,562.42 583.483,552.92 590,542.5C 598.59,534.527 608.756,531.36 620.5,533C 624.583,533.53 628.583,534.363 632.5,535.5C 632.666,540.179 632.499,544.845 632,549.5C 624.108,544.836 615.608,543.336 606.5,545C 600.513,547.14 598.346,551.307 600,557.5C 600.785,559.286 601.951,560.786 603.5,562C 610.336,565.39 617.336,568.39 624.5,571C 629.024,573.693 632.691,577.193 635.5,581.5 Z"/></g>
<g><path style="opacity:0.916" fill="#29a79a" d="M 318.5,534.5 C 322.833,534.5 327.167,534.5 331.5,534.5C 331.667,559.502 331.5,584.502 331,609.5C 327,610.833 323,610.833 319,609.5C 318.5,584.502 318.333,559.502 318.5,534.5 Z"/></g>
<g><path style="opacity:0.938" fill="#29a79a" d="M 507.5,534.5 C 512.43,534.197 517.263,534.531 522,535.5C 529,555.833 536,576.167 543,596.5C 550.243,575.744 557.576,555.411 565,535.5C 569.401,534.533 573.901,534.2 578.5,534.5C 566.365,567.064 553.532,599.398 540,631.5C 532.969,642.954 522.969,646.954 510,643.5C 509.333,640.167 509.333,636.833 510,633.5C 514.753,633.975 519.586,633.475 524.5,632C 526.359,630.442 527.859,628.609 529,626.5C 531.5,620.833 534,615.167 536.5,609.5C 526.543,584.59 516.876,559.59 507.5,534.5 Z"/></g>
</svg>