<svg width="4383" height="1190" viewBox="0 0 4383 1190" fill="none" xmlns="http://www.w3.org/2000/svg">
<mask id="mask0_172_2875" style="mask-type:luminance" maskUnits="userSpaceOnUse" x="0" y="372" width="193" height="546">
<path d="M0.178558 584.795L192.388 917.397C176.746 869.8 109.155 650.175 163.954 372.002C73.94 458.266 0.178558 584.795 0.178558 584.795Z" fill="white"/>
</mask>
<g mask="url(#mask0_172_2875)">
<path d="M0.178558 584.795L192.388 917.397C176.746 869.8 109.155 650.175 163.954 372.002C73.94 458.266 0.178558 584.795 0.178558 584.795Z" fill="url(#paint0_linear_172_2875)"/>
</g>
<mask id="mask1_172_2875" style="mask-type:luminance" maskUnits="userSpaceOnUse" x="121" y="33" width="459" height="334">
<path d="M121.518 366.072C154.943 328.746 311.467 160.51 579.839 69.0762C460.16 34.1707 313.697 33.4406 313.697 33.4406L121.518 366.072Z" fill="white"/>
</mask>
<g mask="url(#mask1_172_2875)">
<path d="M121.518 366.072C154.943 328.746 311.467 160.51 579.839 69.0762C460.16 34.1707 313.697 33.4406 313.697 33.4406L121.518 366.072Z" fill="url(#paint1_linear_172_2875)"/>
</g>
<mask id="mask2_172_2875" style="mask-type:luminance" maskUnits="userSpaceOnUse" x="570" y="33" width="487" height="252">
<path d="M1056.01 284.039C1027.05 162.77 955.138 35.1905 955.138 35.1905L570.989 33C619.966 43.5617 843.651 96.1899 1056.01 284.039Z" fill="white"/>
</mask>
<g mask="url(#mask2_172_2875)">
<path d="M1056.01 284.039C1027.05 162.77 955.138 35.1905 955.138 35.1905L570.989 33C619.966 43.5617 843.651 96.1899 1056.01 284.039Z" fill="url(#paint2_linear_172_2875)"/>
</g>
<mask id="mask3_172_2875" style="mask-type:luminance" maskUnits="userSpaceOnUse" x="1081" y="251" width="191" height="546">
<path d="M1106.65 796.898C1197.19 711.175 1271.71 585.096 1271.71 585.096L1081.51 251.334C1096.86 299.031 1163.13 519.055 1106.65 796.898Z" fill="white"/>
</mask>
<g mask="url(#mask3_172_2875)">
<path d="M1106.65 796.898C1197.19 711.175 1271.71 585.096 1271.71 585.096L1081.51 251.334C1096.86 299.031 1163.13 519.055 1106.65 796.898Z" fill="url(#paint3_linear_172_2875)"/>
</g>
<mask id="mask4_172_2875" style="mask-type:luminance" maskUnits="userSpaceOnUse" x="687" y="802" width="460" height="333">
<path d="M687.196 1098.74C806.795 1133.93 953.247 1135 953.247 1135L1146.19 802.808C1112.68 840.054 955.768 1007.93 687.196 1098.74Z" fill="white"/>
</mask>
<g mask="url(#mask4_172_2875)">
<path d="M687.196 1098.74C806.795 1133.93 953.247 1135 953.247 1135L1146.19 802.808C1112.68 840.054 955.768 1007.93 687.196 1098.74Z" fill="url(#paint4_linear_172_2875)"/>
</g>
<mask id="mask5_172_2875" style="mask-type:luminance" maskUnits="userSpaceOnUse" x="216" y="886" width="487" height="249">
<path d="M318.218 1134.63L702.367 1135C653.33 1124.67 429.395 1073.09 216.152 886.251C245.687 1007.38 318.218 1134.63 318.218 1134.63Z" fill="white"/>
</mask>
<g mask="url(#mask5_172_2875)">
<path d="M318.218 1134.63L702.367 1135C653.33 1124.67 429.395 1073.09 216.152 886.251C245.687 1007.38 318.218 1134.63 318.218 1134.63Z" fill="url(#paint5_linear_172_2875)"/>
</g>
<mask id="mask6_172_2875" style="mask-type:luminance" maskUnits="userSpaceOnUse" x="547" y="431" width="265" height="308">
<path d="M547.764 738.127C547.764 738.127 658.401 613.288 811.554 584.793C636.147 541.406 547.764 431.379 547.764 431.379C600.272 594.535 547.764 738.127 547.764 738.127Z" fill="white"/>
</mask>
<g mask="url(#mask6_172_2875)">
<path d="M547.764 738.127C547.764 738.127 658.401 613.288 811.554 584.793C636.147 541.406 547.764 431.379 547.764 431.379C600.272 594.535 547.764 738.127 547.764 738.127Z" fill="url(#paint6_linear_172_2875)"/>
</g>
<mask id="mask7_172_2875" style="mask-type:luminance" maskUnits="userSpaceOnUse" x="661" y="654" width="62" height="82">
<path d="M661.642 680.341C690.256 703.335 696.007 707.055 722.481 735.08C710.179 693.463 710.909 682.221 705.758 654.867C688.396 664.169 683.055 666.359 661.642 680.341Z" fill="white"/>
</mask>
<g mask="url(#mask7_172_2875)">
<path d="M661.642 680.341C690.256 703.335 696.007 707.055 722.481 735.08C710.179 693.463 710.909 682.221 705.758 654.867C688.396 664.169 683.055 666.359 661.642 680.341Z" fill="url(#paint7_linear_172_2875)"/>
</g>
<mask id="mask8_172_2875" style="mask-type:luminance" maskUnits="userSpaceOnUse" x="462" y="559" width="80" height="52">
<path d="M462.921 584.646C505.118 594.798 514.499 601.049 540.743 610.271C541.373 590.577 542.164 584.857 540.743 559.323C506.528 572.605 500.427 575.735 462.921 584.646Z" fill="white"/>
</mask>
<g mask="url(#mask8_172_2875)">
<path d="M462.921 584.646C505.118 594.798 514.499 601.049 540.743 610.271C541.373 590.577 542.164 584.857 540.743 559.323C506.528 572.605 500.427 575.735 462.921 584.646Z" fill="url(#paint8_linear_172_2875)"/>
</g>
<mask id="mask9_172_2875" style="mask-type:luminance" maskUnits="userSpaceOnUse" x="662" y="434" width="62" height="81">
<path d="M662.191 489.342C678.964 499.683 683.534 503.194 706.378 514.686C711.889 478.39 712.219 471.549 723.141 434.583C693.336 466.128 683.244 471.149 662.191 489.342Z" fill="white"/>
</mask>
<g mask="url(#mask9_172_2875)">
<path d="M662.191 489.342C678.964 499.683 683.534 503.194 706.378 514.686C711.889 478.39 712.219 471.549 723.141 434.583C693.336 466.128 683.244 471.149 662.191 489.342Z" fill="url(#paint9_linear_172_2875)"/>
</g>
<path opacity="0.982" fill-rule="evenodd" clip-rule="evenodd" d="M1546.5 0.5C1547.92 0.709 1549.26 1.209 1550.5 2C1551.31 3.803 1552.48 5.303 1554 6.5C1568.46 4.037 1582.96 3.871 1597.5 6C1609.3 8.305 1614.97 15.471 1614.5 27.5C1614.29 37.358 1611.45 46.358 1606 54.5C1603.93 57.07 1601.43 59.07 1598.5 60.5C1591.4 55.566 1584.73 50.066 1578.5 44C1570.7 39.104 1562.2 37.271 1553 38.5C1521.76 37.915 1493.59 46.748 1468.5 65C1445.8 84.766 1436.3 109.599 1440 139.5C1445.73 156.442 1455.56 170.608 1469.5 182C1490.02 198.842 1512.35 212.842 1536.5 224C1545.32 223.694 1553.32 226.027 1560.5 231C1578.08 245.241 1593.58 261.408 1607 279.5C1625.08 305.87 1631.41 334.87 1626 366.5C1623.35 405.975 1606.85 438.141 1576.5 463C1548.16 483.423 1517.32 499.257 1484 510.5C1481.58 509.648 1479.08 508.981 1476.5 508.5C1465.92 512.293 1455.25 515.793 1444.5 519C1433.34 519.992 1422.18 520.825 1411 521.5C1397.99 521.49 1389.99 515.157 1387 502.5C1384.71 492.275 1384.04 481.942 1385 471.5C1385.98 464.63 1389.81 462.13 1396.5 464C1402.33 466.081 1407.33 469.414 1411.5 474C1420.49 476.707 1429.66 478.54 1439 479.5C1473.58 478.73 1506.08 470.23 1536.5 454C1552.61 445.552 1565.11 433.385 1574 417.5C1592.03 388.502 1594.37 358.169 1581 326.5C1573.57 309.409 1562.73 294.909 1548.5 283C1542.49 278.496 1535.82 275.329 1528.5 273.5C1526.8 269.296 1524.13 265.796 1520.5 263C1503.37 254.27 1486.37 245.27 1469.5 236C1452.28 226.122 1436.78 213.955 1423 199.5C1400.69 170.73 1394.69 138.73 1405 103.5C1416.12 70.375 1437.29 45.875 1468.5 30C1474.93 26.451 1481.6 23.451 1488.5 21C1493.83 20.667 1499.17 20.333 1504.5 20C1506.83 17.667 1509.17 15.333 1511.5 13C1523.87 10.47 1535.53 6.303 1546.5 0.5Z" fill="#FEFFFE"/>
<path opacity="0.984" fill-rule="evenodd" clip-rule="evenodd" d="M2753.5 3.50014C2762.71 2.80114 2771.37 4.63514 2779.5 9.00014C2782.08 13.4961 2784.41 18.1631 2786.5 23.0001C2786.24 24.2611 2785.57 25.2611 2784.5 26.0001C2780.67 26.5001 2778.5 28.6671 2778 32.5001C2766.84 72.7531 2760.68 113.753 2759.5 155.5C2759.4 164.608 2760.24 173.608 2762 182.5C2763.74 183.894 2765.74 184.561 2768 184.5C2773.5 183.333 2779 182.166 2784.5 181C2788.57 180.044 2792.41 180.544 2796 182.5C2796.76 185.196 2797.93 187.696 2799.5 190C2803.57 190.658 2807.57 190.325 2811.5 189C2820.4 184.532 2829.74 181.865 2839.5 181C2841.48 182.889 2843.82 184.222 2846.5 185C2858.9 183.907 2869.4 187.741 2878 196.5C2880 200.833 2880 205.167 2878 209.5C2875.83 211.667 2873.67 213.833 2871.5 216C2870.5 216.667 2869.5 216.667 2868.5 216C2867.65 214.978 2866.65 214.145 2865.5 213.5C2860.98 218.599 2855.32 221.932 2848.5 223.5C2847.34 220.044 2845.17 219.044 2842 220.5C2834.51 217.113 2826.67 214.947 2818.5 214C2797.82 214.578 2777.15 214.411 2756.5 213.5C2751.94 248.695 2748.94 284.028 2747.5 319.5C2745.75 351.998 2752.25 382.665 2767 411.5C2777.14 426.637 2790.64 437.804 2807.5 445C2812.21 449.38 2817.21 453.38 2822.5 457C2834.66 459.818 2846.99 461.151 2859.5 461C2866.59 466.555 2867.42 473.055 2862 480.5C2856.7 490.271 2850.53 499.437 2843.5 508C2842.67 508.167 2841.83 508.333 2841 508.5C2833.03 506.907 2825.03 505.24 2817 503.5C2816.59 503.957 2816.09 504.291 2815.5 504.5C2810.51 502.515 2806.51 499.348 2803.5 495C2766.75 479.252 2740.25 453.085 2724 416.5C2720.04 402.759 2717.38 388.759 2716 374.5C2710.98 320.7 2712.14 267.033 2719.5 213.5C2717.17 213.335 2715.01 212.669 2713 211.5C2711.99 213.025 2711.49 214.692 2711.5 216.5C2707.22 217.546 2704.55 216.046 2703.5 212C2679.95 211.132 2656.62 208.465 2633.5 204C2629.64 202.819 2626.14 200.986 2623 198.5C2622.16 189.001 2626.66 184.167 2636.5 184C2658.74 186.059 2680.07 182.726 2700.5 174C2709.48 169.686 2715.65 162.853 2719 153.5C2723.87 132.772 2726.87 111.772 2728 90.5001C2728.07 73.7891 2728.74 57.1221 2730 40.5001C2733.35 25.0861 2741.19 12.7531 2753.5 3.50014Z" fill="#FEFFFE"/>
<path opacity="0.976" fill-rule="evenodd" clip-rule="evenodd" d="M2123.5 39.5C2125.86 39.337 2128.19 39.503 2130.5 40C2137.51 44.508 2144.85 48.508 2152.5 52C2161.32 58.305 2162.82 66.139 2157 75.5C2151.01 83.823 2143.01 88.823 2133 90.5C2128.23 89.799 2123.73 88.299 2119.5 86C2112.33 80.167 2105.83 73.667 2100 66.5C2099.2 62.091 2100.2 58.091 2103 54.5C2108.64 47.623 2115.47 42.623 2123.5 39.5Z" fill="#FEFFFE"/>
<path opacity="0.972" fill-rule="evenodd" clip-rule="evenodd" d="M2555.5 39.5C2557.86 39.337 2560.19 39.503 2562.5 40C2568.85 44.174 2575.51 47.841 2582.5 51C2593.48 57.516 2595.31 66.016 2588 76.5C2582.03 84.311 2574.19 88.978 2564.5 90.5C2553.59 88.626 2544.75 83.293 2538 74.5C2535.1 71.268 2532.6 67.768 2530.5 64C2533.19 56.294 2537.86 49.96 2544.5 45C2547.99 42.588 2551.66 40.755 2555.5 39.5Z" fill="#FEFFFE"/>
<path opacity="0.984" fill-rule="evenodd" clip-rule="evenodd" d="M1744.5 124.5C1750.84 124.334 1757.18 124.5 1763.5 125C1766.35 127.559 1767.18 130.726 1766 134.5C1762 150.257 1760.33 166.257 1761 182.5C1762 183.167 1763 183.833 1764 184.5C1788.21 175.541 1812.71 167.374 1837.5 160C1849.36 157.078 1861.36 154.912 1873.5 153.5C1901.11 158.981 1927.44 168.148 1952.5 181C1961 191.5 1969.5 202 1978 212.5C1987.96 230.119 1992.79 249.119 1992.5 269.5C1989.41 319.354 1969.74 361.187 1933.5 395C1929.5 397.667 1925.5 400.333 1921.5 403C1919.29 405.921 1917.45 409.088 1916 412.5C1899.46 426.515 1882.3 439.681 1864.5 452C1860.08 453.806 1855.75 455.806 1851.5 458C1847.06 463.042 1842.06 467.375 1836.5 471C1831.64 472.837 1826.64 474.17 1821.5 475C1813.1 481.06 1804.44 486.727 1795.5 492C1786.07 495.294 1776.4 497.627 1766.5 499C1759.8 500.857 1756.3 505.357 1756 512.5C1752.43 561.274 1753.76 609.94 1760 658.5C1761.76 665.357 1764.6 671.691 1768.5 677.5C1764.34 683.484 1758.84 687.817 1752 690.5C1751.28 689.941 1750.44 689.608 1749.5 689.5C1740.87 693.227 1731.87 695.56 1722.5 696.5C1706.05 692.931 1701.21 683.265 1708 667.5C1711.93 658.709 1714.43 649.543 1715.5 640C1715.08 635.674 1714.74 631.34 1714.5 627C1716.34 588.518 1717.18 550.018 1717 511.5C1717.26 500.274 1713.59 490.607 1706 482.5C1705.8 476.188 1706.63 470.022 1708.5 464C1707.41 461.936 1707.24 459.769 1708 457.5C1714.62 450.14 1717.79 441.474 1717.5 431.5C1715.77 419.06 1716.27 406.727 1719 394.5C1719.19 359.812 1720.02 325.146 1721.5 290.5C1722.03 275.672 1720.86 261.005 1718 246.5C1716.55 241.692 1713.38 239.859 1708.5 241C1701.1 244.102 1693.44 245.435 1685.5 245C1682.45 242.286 1679.78 239.286 1677.5 236C1679.11 233.384 1681.11 231.05 1683.5 229C1691.18 224.158 1699.18 219.825 1707.5 216C1711.55 213.399 1715.05 210.232 1718 206.5C1718.98 204.634 1719.48 202.634 1719.5 200.5C1717.77 193.517 1717.43 186.517 1718.5 179.5C1717.29 176.125 1715.46 173.125 1713 170.5C1711.55 162.214 1711.21 153.881 1712 145.5C1713.03 141.278 1715.19 137.778 1718.5 135C1727.08 130.981 1735.74 127.481 1744.5 124.5ZM1822.5 189.5C1840.18 189.512 1857.85 190.012 1875.5 191C1881.38 195.402 1888.04 197.402 1895.5 197C1923.16 211.678 1939.66 234.512 1945 265.5C1949.33 283.954 1948.66 302.287 1943 320.5C1936.6 346.863 1924.93 370.53 1908 391.5C1901.76 398.407 1894.93 404.573 1887.5 410C1872 420.582 1856.34 430.915 1840.5 441C1822.66 452.686 1803.33 456.02 1782.5 451C1777.74 449.978 1773.08 448.644 1768.5 447C1765.67 444.173 1762.34 442.173 1758.5 441C1757.3 440.097 1756.47 438.931 1756 437.5C1756.25 390.004 1756.75 342.504 1757.5 295C1757.47 281.149 1757.14 267.316 1756.5 253.5C1755.98 235.545 1761.32 219.712 1772.5 206C1778.77 201.029 1785.77 197.362 1793.5 195C1803.19 192.5 1812.85 190.666 1822.5 189.5Z" fill="#FEFFFE"/>
<path opacity="0.983" fill-rule="evenodd" clip-rule="evenodd" d="M2288.5 144.5C2296.02 143.927 2303.36 144.76 2310.5 147C2317.24 153.225 2319.07 160.725 2316 169.5C2311.09 183.127 2307.76 197.127 2306 211.5C2305.33 235.167 2305.33 258.833 2306 282.5C2307.6 285.559 2310.1 287.559 2313.5 288.5C2323.07 268.542 2335.74 250.709 2351.5 235C2364.88 224.141 2379.88 216.141 2396.5 211C2410.83 206.082 2425.5 203.082 2440.5 202C2442.67 204.167 2444.83 206.333 2447 208.5C2448.53 212.711 2448.87 217.044 2448 221.5C2442.58 231.003 2438.25 241.003 2435 251.5C2432.95 254.423 2430.79 257.257 2428.5 260C2424.83 260.667 2421.17 260.667 2417.5 260C2410.67 255.587 2403.34 252.254 2395.5 250C2390.67 249.371 2386.01 250.038 2381.5 252C2368.71 257.123 2357.88 264.956 2349 275.5C2340.48 286.367 2333.15 298.034 2327 310.5C2325.47 320.11 2321.8 328.777 2316 336.5C2315.67 340.833 2315.33 345.167 2315 349.5C2309.42 363.699 2307.75 378.366 2310 393.5C2306.84 396.482 2305.34 400.148 2305.5 404.5C2306.84 421.531 2310 438.198 2315 454.5C2316.75 458.327 2318.75 461.993 2321 465.5C2323.91 477.543 2319.41 484.71 2307.5 487C2305.5 489 2303.5 491 2301.5 493C2287.37 495.173 2273.37 494.506 2259.5 491C2258.6 484.488 2259.1 477.988 2261 471.5C2265.58 458.513 2268.58 445.18 2270 431.5C2274.76 344.54 2271.59 257.874 2260.5 171.5C2260.57 164.438 2263.24 158.604 2268.5 154C2274.87 149.977 2281.54 146.811 2288.5 144.5Z" fill="#FEFFFE"/>
<path opacity="0.986" fill-rule="evenodd" clip-rule="evenodd" d="M2121.5 146.5C2126.77 145.549 2130.27 147.549 2132 152.5C2133.96 160.361 2134.8 168.361 2134.5 176.5C2130.57 230.47 2127.07 284.47 2124 338.5C2122.99 368.899 2123.99 399.232 2127 429.5C2128.61 441.653 2132.61 452.986 2139 463.5C2141.62 470.982 2143.45 478.649 2144.5 486.5C2145.31 486.808 2145.97 487.308 2146.5 488C2144.69 490.403 2142.36 492.07 2139.5 493C2132.83 495.667 2126.17 498.333 2119.5 501C2110.32 502.37 2101.15 503.87 2092 505.5C2085.08 505.373 2079.75 502.373 2076 496.5C2074.7 482.591 2076.37 468.924 2081 455.5C2084.17 450.516 2086.17 445.183 2087 439.5C2088.16 417.348 2088.99 395.181 2089.5 373C2087.99 318.841 2086.83 264.674 2086 210.5C2082.47 204.779 2079.47 198.779 2077 192.5C2074.68 183.996 2075.01 175.662 2078 167.5C2079.41 166.213 2080.91 165.046 2082.5 164C2095.59 158.117 2108.59 152.283 2121.5 146.5Z" fill="#FEFFFE"/>
<path opacity="0.985" fill-rule="evenodd" clip-rule="evenodd" d="M2552.5 146.5C2560.03 145.525 2564.2 148.858 2565 156.5C2565.91 162.632 2566.41 168.799 2566.5 175C2562.81 226.487 2559.31 277.987 2556 329.5C2554.51 365.947 2555.84 402.281 2560 438.5C2563.11 447.387 2566.78 456.054 2571 464.5C2573.9 472.992 2575.73 481.492 2576.5 490C2560.19 499.216 2542.69 504.382 2524 505.5C2513.48 505.031 2507.65 499.697 2506.5 489.5C2507.36 478.666 2509.19 468 2512 457.5C2513.22 453.385 2515.22 449.718 2518 446.5C2519.96 421.878 2520.8 397.211 2520.5 372.5C2519.62 318.747 2518.79 265.081 2518 211.5C2515.59 206.341 2512.92 201.341 2510 196.5C2506.87 187.977 2506.21 179.31 2508 170.5C2509.12 168.376 2510.62 166.543 2512.5 165C2525.89 158.714 2539.23 152.548 2552.5 146.5Z" fill="#FEFFFE"/>
<path opacity="0.964" fill-rule="evenodd" clip-rule="evenodd" d="M3295.5 329.5C3300.49 329.318 3303.66 331.651 3305 336.5C3305.67 339.5 3305.67 342.5 3305 345.5C3301.74 346.717 3299.74 349.05 3299 352.5C3297.41 354.297 3295.41 355.297 3293 355.5C3290.47 354.241 3287.81 353.241 3285 352.5C3279.71 354.144 3274.21 354.977 3268.5 355C3267.64 355.689 3266.98 356.522 3266.5 357.5C3262.54 358.327 3258.54 358.827 3254.5 359C3247.2 363.32 3239.87 367.653 3232.5 372C3217.52 388.114 3207.36 406.947 3202 428.5C3199.72 441.58 3197.05 454.58 3194 467.5C3192.93 473.144 3193.76 478.477 3196.5 483.5C3198.96 486.159 3201.8 486.826 3205 485.5C3206.02 486.687 3207.19 487.687 3208.5 488.5C3212.3 487.395 3216.13 487.395 3220 488.5C3231.08 486.081 3242.25 484.581 3253.5 484C3259.85 484.581 3262.35 488.081 3261 494.5C3258.5 495.667 3256.67 497.5 3255.5 500C3254.22 500.684 3253.05 500.517 3252 499.5C3250.26 500.894 3248.26 501.561 3246 501.5C3229.18 499.373 3212.35 499.04 3195.5 500.5C3192.03 541.614 3193.2 582.614 3199 623.5C3199.79 625.587 3200.96 627.421 3202.5 629C3201.92 629.893 3201.59 630.893 3201.5 632C3202.94 636.808 3204.27 641.641 3205.5 646.5C3205.17 647.5 3204.83 648.5 3204.5 649.5C3199.07 652.759 3194.07 656.592 3189.5 661C3187.5 661.667 3185.5 661.667 3183.5 661C3180.63 657.796 3177.46 654.963 3174 652.5C3173.67 652.833 3173.33 653.167 3173 653.5C3171.26 651.29 3170.09 648.79 3169.5 646C3175.15 640.397 3177.15 633.73 3175.5 626C3176.78 609.711 3177.44 593.377 3177.5 577C3176.78 551.82 3175.78 526.653 3174.5 501.5C3170.88 501.868 3167.38 501.868 3164 501.5C3162.91 504.993 3161.74 505.159 3160.5 502C3152.66 502.297 3151.66 499.631 3157.5 494C3160.29 491.274 3163.62 489.607 3167.5 489C3168.31 485.925 3170.31 484.258 3173.5 484C3174.7 483.097 3175.53 481.931 3176 480.5C3178.57 468.967 3180.23 457.3 3181 445.5C3186.56 414.211 3199.73 386.711 3220.5 363C3226.88 357.615 3233.55 352.615 3240.5 348C3250.82 343.692 3261.15 339.359 3271.5 335C3278.82 333.668 3286.15 332.334 3293.5 331C3294.42 330.722 3295.08 330.222 3295.5 329.5Z" fill="#FEFFFE"/>
<path opacity="0.966" fill-rule="evenodd" clip-rule="evenodd" d="M3032.5 487.5C3047.6 486.912 3062.6 487.745 3077.5 490C3088.48 492.987 3098.14 498.321 3106.5 506C3113.44 513.374 3119.27 521.541 3124 530.5C3132.28 578.433 3115.78 614.933 3074.5 640C3057.85 648.14 3040.35 650.973 3022 648.5C2996.16 652.777 2973.83 645.777 2955 627.5C2940.14 609.561 2935.81 589.227 2942 566.5C2943.34 559.479 2945.67 552.812 2949 546.5C2949.74 539.359 2952.4 533.026 2957 527.5C2976.15 503.008 3001.31 489.675 3032.5 487.5ZM3033.5 499.5C3064.09 497.866 3086.26 510.533 3100 537.5C3107.18 556.518 3105.84 574.851 3096 592.5C3088.25 605.963 3078.59 617.963 3067 628.5C3065.61 627.446 3064.11 627.28 3062.5 628C3027.4 644.432 2996.9 638.266 2971 609.5C2956.24 577.254 2960.4 547.754 2983.5 521C2988.79 516.86 2994.46 513.526 3000.5 511C3004.83 511.093 3009.16 511.093 3013.5 511C3018.08 503.53 3024.75 499.696 3033.5 499.5Z" fill="#FEFFFE"/>
<path opacity="0.984" fill-rule="evenodd" clip-rule="evenodd" d="M1996.5 554.5C1999.94 554.301 2003.27 554.801 2006.5 556C2012.33 559.833 2018.17 563.667 2024 567.5C2024.67 570.5 2024.67 573.5 2024 576.5C2020.89 585.616 2018.72 594.949 2017.5 604.5C2014.38 607.068 2012.55 610.401 2012 614.5C2010.55 663.75 2013.39 712.75 2020.5 761.5C2017.54 769.18 2018.54 776.35 2023.5 783C2025.18 783.39 2026.85 783.23 2028.5 782.5C2030.73 784.89 2033.4 786.72 2036.5 788C2043.31 788.93 2049.14 791.76 2054 796.5C2054.7 798.28 2055.2 800.11 2055.5 802C2054.27 808.47 2053.27 814.97 2052.5 821.5C2045.42 822.12 2038.59 823.78 2032 826.5C2029.85 826.23 2027.85 825.56 2026 824.5C2020.87 877.58 2021.87 930.58 2029 983.5C2031.46 989.08 2034.46 994.42 2038 999.5C2037.67 1008.31 2037.17 1017.15 2036.5 1026C2037.44 1043.21 2038.94 1060.38 2041 1077.5C2041.8 1084.88 2041.63 1092.22 2040.5 1099.5C2041.69 1102.52 2043.85 1104.52 2047 1105.5C2046.87 1108.49 2046.87 1111.49 2047 1114.5C2051.26 1124.46 2055.43 1134.46 2059.5 1144.5C2049.03 1159.47 2038.36 1174.31 2027.5 1189C2021.41 1190.27 2015.74 1189.27 2010.5 1186C2008.53 1185.5 2006.53 1185.34 2004.5 1185.5C2001.31 1175.92 1998.31 1166.25 1995.5 1156.5C1998.08 1150.09 1999.58 1143.42 2000 1136.5C2000.67 1118.5 2000.67 1100.5 2000 1082.5C1999.06 1073.08 1996.73 1064.08 1993 1055.5C1988.76 1056.29 1984.59 1057.46 1980.5 1059C1935.31 1095.24 1884.65 1105.9 1828.5 1091C1789.93 1077.71 1767.43 1050.88 1761 1010.5C1756.75 989.24 1756.42 967.91 1760 946.5C1761.27 941.36 1762.93 936.36 1765 931.5C1774.06 912.38 1783.39 893.38 1793 874.5C1803.5 860 1816 847.5 1830.5 837C1840.82 829.17 1851.49 821.84 1862.5 815C1871.64 812.4 1880.64 809.4 1889.5 806C1905.75 798.42 1922.42 791.92 1939.5 786.5C1941.63 787.05 1943.13 788.39 1944 790.5C1953.07 785.11 1962.9 782.27 1973.5 782C1977.51 780.17 1979.67 777.01 1980 772.5C1980.22 721.27 1976.89 670.27 1970 619.5C1967.67 614.5 1964 610.833 1959 608.5C1957.49 599.887 1957.16 591.22 1958 582.5C1959.33 571.579 1965.5 565.746 1976.5 565C1982.82 560.676 1989.48 557.176 1996.5 554.5ZM1935.5 815.5C1947.2 816.54 1958.87 817.87 1970.5 819.5C1970.2 821.6 1970.53 823.6 1971.5 825.5C1975.06 826.74 1978.56 828.07 1982 829.5C1986.93 882.06 1989.26 934.72 1989 987.5C1989.17 1002.82 1987.17 1017.82 1983 1032.5C1978.79 1038.38 1973.62 1043.21 1967.5 1047C1937.21 1062.16 1905.21 1067.83 1871.5 1064C1833.93 1056.77 1809.1 1034.94 1797 998.5C1788.61 966.71 1791.61 936.04 1806 906.5C1824.78 867.72 1853.95 839.88 1893.5 823C1902.56 819.99 1911.89 818.66 1921.5 819C1926.3 817.8 1930.96 816.63 1935.5 815.5Z" fill="#FEFFFE"/>
<path opacity="0.983" fill-rule="evenodd" clip-rule="evenodd" d="M1502.5 593.5C1510.25 592.25 1513.92 595.583 1513.5 603.5C1512.9 607.012 1512.23 610.512 1511.5 614C1523.84 653.185 1538.01 691.685 1554 729.5C1596.41 829.99 1640.74 929.66 1687 1028.5C1698.46 1044.2 1705.63 1061.7 1708.5 1081C1707.76 1089.07 1703.43 1094.07 1695.5 1096C1680.85 1100.45 1666.35 1105.29 1652 1110.5C1648.1 1106.86 1645.93 1102.36 1645.5 1097C1645.97 1090.81 1647.3 1084.81 1649.5 1079C1638.24 1026.66 1619.07 977.49 1592 931.5C1586.73 926.75 1580.56 925.25 1573.5 927C1570.56 928.71 1567.73 930.55 1565 932.5C1548.31 924.94 1530.81 922.44 1512.5 925C1504.47 925.34 1496.47 926 1488.5 927C1480.49 928.84 1472.49 930.67 1464.5 932.5C1460.85 932.37 1458.01 930.7 1456 927.5C1447.59 930.32 1438.92 931.98 1430 932.5C1414.52 930.19 1399.02 930.03 1383.5 932C1365.65 935.4 1347.98 939.4 1330.5 944C1328.61 946.3 1326.61 948.47 1324.5 950.5C1322.74 949.87 1321.24 948.87 1320 947.5C1301.24 985.69 1283.57 1024.36 1267 1063.5C1265.77 1084.09 1259.77 1103.09 1249 1120.5C1246.46 1124.05 1243.13 1126.38 1239 1127.5C1221.79 1122.16 1204.29 1117.99 1186.5 1115C1185.67 1114.17 1184.83 1113.33 1184 1112.5C1182.84 1106.44 1183.84 1100.78 1187 1095.5C1192.65 1089.52 1198.65 1083.86 1205 1078.5C1213.46 1061.92 1224.12 1046.92 1237 1033.5C1251.09 1011.66 1264.42 989.33 1277 966.5C1281.95 959.22 1287.28 952.22 1293 945.5C1297.83 929.18 1304.83 913.84 1314 899.5C1348.52 847.15 1380.52 793.15 1410 737.5C1427.61 713.29 1442.95 687.624 1456 660.5C1458.94 653.086 1460.77 645.419 1461.5 637.5C1464.36 637.945 1466.86 637.278 1469 635.5C1469.46 621.246 1475.62 610.246 1487.5 602.5C1488.75 603.04 1489.91 603.707 1491 604.5C1494.73 600.602 1498.56 596.935 1502.5 593.5ZM1476.5 678.5C1478.78 678.608 1480.78 679.441 1482.5 681C1494.52 697.873 1504.36 716.04 1512 735.5C1532.62 785.35 1552.45 835.52 1571.5 886C1569.78 890.72 1566.44 893.72 1561.5 895C1557.88 896.16 1554.21 897.16 1550.5 898C1542.68 898.28 1535.01 899.45 1527.5 901.5C1519.88 901.05 1512.21 900.88 1504.5 901C1501.23 900.55 1498.07 899.71 1495 898.5C1493.01 901.67 1490.17 903.34 1486.5 903.5C1479.87 902.28 1473.2 901.28 1466.5 900.5C1449.86 902.78 1433.19 904.78 1416.5 906.5C1402.25 904.44 1387.91 903.27 1373.5 903C1369.02 902.13 1364.68 900.8 1360.5 899C1356.34 896.18 1354.84 892.35 1356 887.5C1359.51 877.48 1363.84 867.81 1369 858.5C1399.44 809.31 1428.1 758.97 1455 707.5C1460.74 696.658 1467.9 686.991 1476.5 678.5Z" fill="#FEFFFE"/>
<path opacity="0.983" fill-rule="evenodd" clip-rule="evenodd" d="M3296.5 613.5C3305.7 613.511 3314.37 615.678 3322.5 620C3324.41 624.565 3326.41 629.065 3328.5 633.5C3328.39 634.442 3328.06 635.275 3327.5 636C3323 636.5 3320.5 639 3320 643.5C3308.9 683.59 3302.73 724.424 3301.5 766C3301.62 774.92 3302.46 783.76 3304 792.5C3305.26 794.59 3307.09 795.59 3309.5 795.5C3314.53 794.44 3319.53 793.27 3324.5 792C3328.87 791.17 3333.2 791.34 3337.5 792.5C3338.67 794.83 3339.83 797.17 3341 799.5C3342.13 800.94 3343.63 801.61 3345.5 801.5C3356.95 797.74 3368.45 794.07 3380 790.5C3381.7 792.61 3383.87 794.11 3386.5 795C3395.96 795.06 3404.96 797.06 3413.5 801C3423.78 808.84 3424.11 817.18 3414.5 826C3413.5 826.5 3412.5 827 3411.5 827.5C3410.17 826.5 3408.83 825.5 3407.5 824.5C3403.47 829.43 3398.3 832.43 3392 833.5C3389.79 833.09 3388.45 831.76 3388 829.5C3386.67 830.17 3385.33 830.83 3384 831.5C3377.22 828.13 3370.05 825.96 3362.5 825C3341.16 825.36 3319.82 825.19 3298.5 824.5C3293.94 859.69 3290.94 895.03 3289.5 930.5C3287.56 964.33 3294.73 996 3311 1025.5C3321.15 1038.32 3333.65 1048.16 3348.5 1055C3352.47 1057.96 3356.13 1061.3 3359.5 1065C3364.13 1067.74 3369.13 1069.41 3374.5 1070C3383.82 1070.9 3393.15 1071.57 3402.5 1072C3408.63 1077.91 3409.13 1084.41 3404 1091.5C3399.5 1097.84 3395.5 1104.5 3392 1111.5C3389.29 1114.55 3386.29 1117.22 3383 1119.5C3374.01 1117.23 3364.84 1115.4 3355.5 1114C3353.33 1112.41 3351 1111.08 3348.5 1110C3347.21 1107.71 3345.54 1105.71 3343.5 1104C3321.67 1095.83 3303.5 1082.66 3289 1064.5C3280.42 1053.68 3273.08 1042.01 3267 1029.5C3262.39 1014.84 3259.39 999.84 3258 984.5C3253.09 931.71 3254.26 879.04 3261.5 826.5C3260.19 824.27 3258.19 822.93 3255.5 822.5C3253.51 825.84 3250.51 827.18 3246.5 826.5C3246.67 825.18 3246.34 824.01 3245.5 823C3230.18 821.67 3214.85 820.33 3199.5 819C3188.86 817.94 3178.53 815.61 3168.5 812C3163.26 807.41 3163.26 802.74 3168.5 798C3170.96 796.44 3173.62 795.44 3176.5 795C3189.48 793.93 3202.48 793.26 3215.5 793C3232.49 791.25 3246.66 784.09 3258 771.5C3260.43 766.76 3262.1 761.76 3263 756.5C3269.16 721.759 3272.16 686.759 3272 651.5C3275.43 635.601 3283.6 622.934 3296.5 613.5Z" fill="#FEFFFE"/>
<path opacity="0.984" fill-rule="evenodd" clip-rule="evenodd" d="M3922.5 754.5C3930.07 754.01 3937.07 755.68 3943.5 759.5C3947.24 765.33 3948.41 771.66 3947 778.5C3940.96 794.99 3937.29 811.99 3936 829.5C3935.44 851.18 3935.78 872.84 3937 894.5C3939.19 897.69 3942.03 898.69 3945.5 897.5C3956.5 870.68 3974.16 849.51 3998.5 834C4021.48 822.11 4045.82 815.11 4071.5 813C4079.02 818.19 4081.18 825.02 4078 833.5C4072.97 841.23 4069.3 849.56 4067 858.5C4064.95 863.21 4062.12 867.38 4058.5 871C4055.17 871.67 4051.83 871.67 4048.5 871C4041.66 866.58 4034.33 863.25 4026.5 861C4021.3 860.13 4016.3 860.8 4011.5 863C3999.07 867.75 3988.57 875.25 3980 885.5C3971.08 896.99 3963.41 909.33 3957 922.5C3955.47 932.11 3951.8 940.77 3946 948.5C3945.67 952.83 3945.33 957.17 3945 961.5C3939.63 972.97 3938.47 984.81 3941.5 997C3941.36 1001.73 3939.86 1005.9 3937 1009.5C3936.64 1029.01 3939.64 1048.01 3946 1066.5C3947.5 1070.16 3949.5 1073.5 3952 1076.5C3953.05 1083.61 3951.22 1089.78 3946.5 1095C3944.29 1096.04 3941.95 1096.71 3939.5 1097C3937.17 1099.33 3934.83 1101.67 3932.5 1104C3921.83 1104.67 3911.17 1104.67 3900.5 1104C3897.08 1103.48 3893.75 1102.65 3890.5 1101.5C3890.17 1099.5 3889.83 1097.5 3889.5 1095.5C3892.48 1080.06 3895.98 1064.73 3900 1049.5C3903.13 990.16 3903.13 930.83 3900 871.5C3898.39 844.73 3895.72 818.06 3892 791.5C3888.83 779.69 3891.99 770.19 3901.5 763C3908.19 759.06 3915.19 756.22 3922.5 754.5Z" fill="#FEFFFE"/>
<path opacity="0.984" fill-rule="evenodd" clip-rule="evenodd" d="M2884.5 759.5C2887.29 759.45 2889.13 760.79 2890 763.5C2890.67 770.83 2890.67 778.17 2890 785.5C2887.3 795.28 2884.8 805.11 2882.5 815C2883.68 823.85 2888.68 827.85 2897.5 827C2900.53 823.63 2903.87 820.63 2907.5 818C2925.91 818.81 2942.91 814.48 2958.5 805C2963.39 803.49 2968.39 802.49 2973.5 802C2976.68 799.91 2979.68 797.57 2982.5 795C3000.37 791.8 3018.37 790.8 3036.5 792C3079.67 798.5 3105.17 823.33 3113 866.5C3117.31 898.77 3117.64 931.1 3114 963.5C3111.99 981.27 3109.32 998.93 3106 1016.5C3100.14 1044.27 3093.81 1071.94 3087 1099.5C3085.36 1106.81 3085.19 1114.15 3086.5 1121.5C3083.57 1135.93 3074.74 1143.26 3060 1143.5C3048.18 1143.23 3038.18 1138.9 3030 1130.5C3025.3 1122.09 3025.63 1113.76 3031 1105.5C3036.67 1097.83 3042.33 1090.17 3048 1082.5C3062.79 1050.36 3072.45 1016.69 3077 981.5C3081.13 950.86 3081.46 920.19 3078 889.5C3074.14 862.23 3060.31 842.06 3036.5 829C2993.16 815.33 2952.5 821 2914.5 846C2907.71 851.11 2902.88 857.61 2900 865.5C2895 869.17 2890 872.83 2885 876.5C2880.84 922.39 2878.34 968.39 2877.5 1014.5C2876.85 1029.22 2879.68 1043.22 2886 1056.5C2886.85 1065.89 2886.52 1075.22 2885 1084.5C2883.45 1092.72 2878.62 1097.55 2870.5 1099C2869.69 1100.8 2868.52 1102.3 2867 1103.5C2863.88 1102.46 2860.71 1102.3 2857.5 1103C2854.23 1104.8 2850.9 1106.3 2847.5 1107.5C2842.72 1106.06 2838.72 1103.39 2835.5 1099.5C2824.24 1098.75 2820.41 1093.09 2824 1082.5C2825.59 1078.32 2827.92 1074.66 2831 1071.5C2839.36 1031.62 2843.69 991.28 2844 950.5C2845.03 917.46 2844.36 884.46 2842 851.5C2841.44 835.3 2837.1 820.3 2829 806.5C2827.15 798.04 2829.65 791.21 2836.5 786C2840.42 784.14 2844.42 782.47 2848.5 781C2853.07 776.52 2857.4 771.86 2861.5 767C2869.73 765.87 2877.39 763.37 2884.5 759.5Z" fill="#FEFFFE"/>
<path opacity="0.982" fill-rule="evenodd" clip-rule="evenodd" d="M2398.5 762.5C2412.14 761.06 2424.81 763.89 2436.5 771C2439 772.17 2440.83 774 2442 776.5C2443.31 783.87 2442.31 790.87 2439 797.5C2434.86 801.57 2430.19 804.9 2425 807.5C2372.83 888.95 2333.16 976.28 2306 1069.5C2301.77 1078.73 2297.1 1087.73 2292 1096.5C2290.42 1099.28 2290.26 1102.12 2291.5 1105C2289.64 1107.18 2287.48 1109.01 2285 1110.5C2284.11 1113 2282.95 1115.33 2281.5 1117.5C2273.78 1114.3 2265.94 1114.3 2258 1117.5C2254.74 1112.57 2251.07 1107.9 2247 1103.5C2243.08 1092.32 2238.08 1081.65 2232 1071.5C2232.39 1068.69 2233.06 1066.03 2234 1063.5C2213.89 1011.94 2193.22 960.61 2172 909.5C2162.88 888.59 2153.21 867.93 2143 847.5C2137.25 838.99 2131.25 830.66 2125 822.5C2121.16 812.51 2122.49 803.17 2129 794.5C2133.28 786.43 2139.45 780.26 2147.5 776C2150.5 775.33 2153.5 775.33 2156.5 776C2165.62 782.28 2174.79 787.78 2184 792.5C2186.63 806.36 2188.3 820.36 2189 834.5C2199.27 876.63 2214.27 916.97 2234 955.5C2236.71 957.87 2239.04 960.54 2241 963.5C2246.44 992.39 2260.1 1016.39 2282 1035.5C2286.94 1032.22 2289.1 1027.56 2288.5 1021.5C2290.9 1021.61 2292.74 1020.61 2294 1018.5C2296.59 1014.33 2298.92 1009.99 2301 1005.5C2315.67 968.83 2330.33 932.17 2345 895.5C2349.1 885.09 2354.43 875.42 2361 866.5C2362.54 861.55 2363.87 856.55 2365 851.5C2370.85 839.44 2374.85 826.77 2377 813.5C2379 811.5 2381 809.5 2383 807.5C2384.9 798.53 2385.57 789.53 2385 780.5C2385.95 771.73 2390.45 765.73 2398.5 762.5Z" fill="#FEFFFE"/>
<path opacity="0.983" fill-rule="evenodd" clip-rule="evenodd" d="M3537.5 766.5C3547.12 768.49 3556.78 770.32 3566.5 772C3570.44 774.85 3573.44 778.52 3575.5 783C3564.34 793.49 3555.51 805.65 3549 819.5C3546.53 826.37 3544.53 833.37 3543 840.5C3536.63 881.11 3530.63 921.78 3525 962.5C3522.55 986.45 3525.22 1009.79 3533 1032.5C3553.34 1073.62 3583.51 1083.12 3623.5 1061C3649.67 1045.83 3674.17 1028.33 3697 1008.5C3706.87 992.88 3713.21 975.88 3716 957.5C3718.92 937.61 3720.42 917.61 3720.5 897.5C3720.24 872.12 3719.08 846.78 3717 821.5C3716.42 811.72 3712.75 803.39 3706 796.5C3704.56 791.24 3704.23 785.9 3705 780.5C3711.26 775.28 3718.09 774.28 3725.5 777.5C3739.21 771.52 3753.54 768.02 3768.5 767C3769.42 767.37 3770.25 767.87 3771 768.5C3772.95 773.3 3774.12 778.3 3774.5 783.5C3768.16 804.02 3762.33 824.68 3757 845.5C3751.44 874.78 3751.11 904.11 3756 933.5C3757.8 942.1 3761.47 949.77 3767 956.5C3767.7 958.28 3768.2 960.11 3768.5 962C3766.26 968.65 3763.09 974.82 3759 980.5C3757.06 986.16 3756.23 992 3756.5 998C3757.85 1014.27 3760.02 1030.43 3763 1046.5C3766.56 1049.85 3769.73 1053.52 3772.5 1057.5C3771.54 1060.25 3769.7 1062.25 3767 1063.5C3765.95 1072.49 3765.62 1081.49 3766 1090.5C3766.23 1093.46 3767.4 1095.96 3769.5 1098C3756.54 1104.44 3742.87 1107.77 3728.5 1108C3721.01 1107.51 3717.34 1103.51 3717.5 1096C3719.03 1087.92 3719.87 1079.75 3720 1071.5C3721.86 1068.24 3723.02 1064.74 3723.5 1061C3722.67 1054.84 3721.83 1048.67 3721 1042.5C3719.58 1032.74 3714.08 1028.91 3704.5 1031C3701.5 1032.67 3698.5 1034.33 3695.5 1036C3674.6 1055.24 3652.26 1072.58 3628.5 1088C3620.64 1091.76 3612.98 1095.76 3605.5 1100C3590.17 1102.33 3574.83 1104.67 3559.5 1107C3551.66 1108.4 3544.33 1107.07 3537.5 1103C3525.46 1095.38 3514.63 1086.21 3505 1075.5C3491.96 1053.33 3485.46 1029.33 3485.5 1003.5C3492.05 934.45 3501.38 865.78 3513.5 797.5C3511.8 792.23 3509.8 787.06 3507.5 782C3507.78 780.6 3508.45 779.44 3509.5 778.5C3518.93 774.44 3528.27 770.44 3537.5 766.5Z" fill="#FEFFFE"/>
<path opacity="0.981" fill-rule="evenodd" clip-rule="evenodd" d="M2642.5 768.5C2671.66 765.84 2696.49 774.84 2717 795.5C2722.05 802.94 2726.05 810.94 2729 819.5C2732.5 835.48 2735.83 851.48 2739 867.5C2739.31 873.28 2740.14 878.95 2741.5 884.5C2741.39 887.57 2740.89 890.57 2740 893.5C2737.71 896.46 2736.37 899.79 2736 903.5C2735.1 904.7 2733.93 905.53 2732.5 906C2726.55 907.07 2720.55 907.74 2714.5 908C2712.95 910.05 2710.95 911.55 2708.5 912.5C2702.41 909.5 2696.41 906.5 2690.5 903.5C2686.06 904.55 2681.56 905.21 2677 905.5C2667.17 904.46 2657.34 903.46 2647.5 902.5C2638.45 903.25 2629.45 904.41 2620.5 906C2604.67 906.37 2588.83 906.2 2573 905.5C2552.75 904.95 2532.91 907.45 2513.5 913C2509.44 914.31 2507.28 917.14 2507 921.5C2505.43 923.92 2503.26 925.26 2500.5 925.5C2495.97 955.7 2499.47 985.04 2511 1013.5C2513.07 1018.47 2516.24 1022.64 2520.5 1026C2534.56 1036.39 2548.89 1046.39 2563.5 1056C2585.31 1067.08 2608.48 1072.58 2633 1072.5C2655.46 1070.3 2677.96 1068.8 2700.5 1068C2706.64 1064.43 2712.98 1061.09 2719.5 1058C2723.36 1055.87 2727.36 1055.37 2731.5 1056.5C2739.59 1078.05 2734.59 1095.89 2716.5 1110C2708.41 1114.88 2699.91 1115.72 2691 1112.5C2638.65 1114.17 2587.82 1106 2538.5 1088C2499.49 1072.19 2475.33 1043.69 2466 1002.5C2460.38 976.13 2460.71 949.79 2467 923.5C2474.08 892.57 2486.75 864.24 2505 838.5C2513.2 828.63 2522.37 819.8 2532.5 812C2548.32 800.59 2564.65 789.92 2581.5 780C2587.5 779.67 2593.5 779.33 2599.5 779C2613.49 773.64 2627.83 770.14 2642.5 768.5ZM2618.5 793.5C2638.12 792.82 2656.45 797.32 2673.5 807C2683.2 812.72 2689.53 821.05 2692.5 832C2696.34 843.66 2697.18 855.49 2695 867.5C2691.47 874.69 2685.64 878.52 2677.5 879C2626.19 881.52 2574.86 882.85 2523.5 883C2515.5 880.87 2514 876.7 2519 870.5C2527.67 859.83 2536.33 849.17 2545 838.5C2551.83 830.33 2559.33 822.83 2567.5 816C2576.83 810.33 2586.17 804.67 2595.5 799C2603.33 797.29 2611 795.46 2618.5 793.5Z" fill="#FEFFFE"/>
<path opacity="0.981" fill-rule="evenodd" clip-rule="evenodd" d="M4284.5 768.5C4298.94 767.18 4312.94 769.02 4326.5 774C4333.66 777.41 4340.66 781.08 4347.5 785C4359.46 794.39 4367.29 806.55 4371 821.5C4374.17 834.01 4376.5 846.68 4378 859.5C4379.31 863.29 4380.48 867.12 4381.5 871C4380.07 873.62 4380.23 876.12 4382 878.5C4382.67 882.83 4382.67 887.17 4382 891.5C4379.46 895.54 4377.62 899.87 4376.5 904.5C4369.75 906.91 4362.75 908.07 4355.5 908C4353.98 909.69 4352.32 911.19 4350.5 912.5C4346.35 909.39 4341.69 907.56 4336.5 907C4335.27 905.44 4333.77 904.27 4332 903.5C4327.39 904.54 4322.73 905.21 4318 905.5C4308.33 904.5 4298.67 903.5 4289 902.5C4279.8 903.39 4270.63 904.56 4261.5 906C4239.17 905.78 4216.84 905.78 4194.5 906C4181.24 906.93 4168.24 909.27 4155.5 913C4150.8 914.37 4148.3 917.54 4148 922.5C4145.78 923.94 4143.78 925.61 4142 927.5C4140.4 935.27 4139.23 943.1 4138.5 951C4140.41 970.23 4144.25 989.07 4150 1007.5C4151.89 1012.94 4154.55 1017.94 4158 1022.5C4170.74 1032.12 4183.58 1041.62 4196.5 1051C4220.24 1065.56 4246.07 1072.73 4274 1072.5C4296.79 1070.26 4319.62 1068.76 4342.5 1068C4348.5 1064.67 4354.5 1061.33 4360.5 1058C4364.38 1056.36 4368.38 1055.69 4372.5 1056C4380.17 1074.6 4377.17 1091.27 4363.5 1106C4354.23 1113.92 4343.73 1116.09 4332 1112.5C4310.38 1114.41 4288.88 1113.57 4267.5 1110C4246 1106.1 4224.67 1101.43 4203.5 1096C4143.57 1081.07 4110.41 1042.91 4104 981.5C4101.96 927.97 4116.62 879.64 4148 836.5C4156.9 826.93 4166.4 818.1 4176.5 810C4190.9 799.94 4205.56 790.27 4220.5 781C4227.42 779.78 4234.42 779.11 4241.5 779C4247.23 776.2 4253.23 774.2 4259.5 773C4267.95 771.35 4276.28 769.85 4284.5 768.5ZM4259.5 793.5C4281.26 792.81 4301.26 798.31 4319.5 810C4330.27 819.72 4336.11 831.88 4337 846.5C4337.67 852.83 4337.67 859.17 4337 865.5C4333.97 874.18 4327.81 878.68 4318.5 879C4267.52 881.49 4216.52 882.83 4165.5 883C4158.61 882.15 4156.44 878.65 4159 872.5C4173.71 853.45 4189.55 835.28 4206.5 818C4209.5 815.67 4212.5 813.33 4215.5 811C4223.15 807.51 4230.49 803.51 4237.5 799C4244.96 797.14 4252.29 795.3 4259.5 793.5Z" fill="#FEFFFE"/>
<defs>
<linearGradient id="paint0_linear_172_2875" x1="0.179168" y1="644.702" x2="192.396" y2="644.702" gradientUnits="userSpaceOnUse">
<stop stop-color="#D91920"/>
<stop offset="0.403588" stop-color="#F1481D"/>
<stop offset="0.508021" stop-color="#F1481D"/>
<stop offset="0.538819" stop-color="#F1481D"/>
<stop offset="1" stop-color="#F79011"/>
</linearGradient>
<linearGradient id="paint1_linear_172_2875" x1="121.516" y1="199.758" x2="579.843" y2="199.758" gradientUnits="userSpaceOnUse">
<stop stop-color="#D91920"/>
<stop offset="0.403588" stop-color="#F1481D"/>
<stop offset="0.508021" stop-color="#F1481D"/>
<stop offset="0.538819" stop-color="#F1481D"/>
<stop offset="1" stop-color="#F79011"/>
</linearGradient>
<linearGradient id="paint2_linear_172_2875" x1="570.986" y1="158.521" x2="1056.01" y2="158.521" gradientUnits="userSpaceOnUse">
<stop stop-color="#D91920"/>
<stop offset="0.403588" stop-color="#F1481D"/>
<stop offset="0.508021" stop-color="#F1481D"/>
<stop offset="0.538819" stop-color="#F1481D"/>
<stop offset="1" stop-color="#F79011"/>
</linearGradient>
<linearGradient id="paint3_linear_172_2875" x1="1081.51" y1="524.112" x2="1271.71" y2="524.112" gradientUnits="userSpaceOnUse">
<stop stop-color="#D91920"/>
<stop offset="0.403588" stop-color="#F1481D"/>
<stop offset="0.508021" stop-color="#F1481D"/>
<stop offset="0.538819" stop-color="#F1481D"/>
<stop offset="1" stop-color="#F79011"/>
</linearGradient>
<linearGradient id="paint4_linear_172_2875" x1="687.188" y1="968.901" x2="1146.19" y2="968.901" gradientUnits="userSpaceOnUse">
<stop stop-color="#D91920"/>
<stop offset="0.403588" stop-color="#F1481D"/>
<stop offset="0.508021" stop-color="#F1481D"/>
<stop offset="0.538819" stop-color="#F1481D"/>
<stop offset="1" stop-color="#F79011"/>
</linearGradient>
<linearGradient id="paint5_linear_172_2875" x1="216.159" y1="1010.62" x2="702.364" y2="1010.62" gradientUnits="userSpaceOnUse">
<stop stop-color="#D91920"/>
<stop offset="0.403588" stop-color="#F1481D"/>
<stop offset="0.508021" stop-color="#F1481D"/>
<stop offset="0.538819" stop-color="#F1481D"/>
<stop offset="1" stop-color="#F79011"/>
</linearGradient>
<linearGradient id="paint6_linear_172_2875" x1="547.764" y1="584.754" x2="811.555" y2="584.754" gradientUnits="userSpaceOnUse">
<stop stop-color="#D91920"/>
<stop offset="0.403588" stop-color="#F1481D"/>
<stop offset="0.508021" stop-color="#F1481D"/>
<stop offset="0.538819" stop-color="#F1481D"/>
<stop offset="1" stop-color="#F79011"/>
</linearGradient>
<linearGradient id="paint7_linear_172_2875" x1="661.643" y1="694.974" x2="722.48" y2="694.974" gradientUnits="userSpaceOnUse">
<stop stop-color="#D91920"/>
<stop offset="0.403588" stop-color="#F1481D"/>
<stop offset="0.508021" stop-color="#F1481D"/>
<stop offset="0.538819" stop-color="#F1481D"/>
<stop offset="1" stop-color="#F79011"/>
</linearGradient>
<linearGradient id="paint8_linear_172_2875" x1="462.925" y1="584.796" x2="541.538" y2="584.796" gradientUnits="userSpaceOnUse">
<stop stop-color="#D91920"/>
<stop offset="0.403588" stop-color="#F1481D"/>
<stop offset="0.508021" stop-color="#F1481D"/>
<stop offset="0.538819" stop-color="#F1481D"/>
<stop offset="1" stop-color="#F79011"/>
</linearGradient>
<linearGradient id="paint9_linear_172_2875" x1="662.191" y1="474.634" x2="723.143" y2="474.634" gradientUnits="userSpaceOnUse">
<stop stop-color="#D91920"/>
<stop offset="0.403588" stop-color="#F1481D"/>
<stop offset="0.508021" stop-color="#F1481D"/>
<stop offset="0.538819" stop-color="#F1481D"/>
<stop offset="1" stop-color="#F79011"/>
</linearGradient>
</defs>
</svg>
