<svg width="818" height="222" viewBox="0 0 818 222" fill="none" xmlns="http://www.w3.org/2000/svg">
<mask id="mask0_172_2876" style="mask-type:luminance" maskUnits="userSpaceOnUse" x="0" y="69" width="36" height="103">
<path d="M0 109.003L35.8569 171.05C32.9387 162.17 20.3297 121.199 30.5524 69.3061C13.7602 85.3986 0 109.003 0 109.003Z" fill="white"/>
</mask>
<g mask="url(#mask0_172_2876)">
<path d="M0 109.004L35.8569 171.051C32.9387 162.171 20.3297 121.2 30.5524 69.3071C13.7602 85.3996 0 109.004 0 109.004Z" fill="url(#paint0_linear_172_2876)"/>
</g>
<mask id="mask1_172_2876" style="mask-type:luminance" maskUnits="userSpaceOnUse" x="22" y="6" width="87" height="63">
<path d="M22.6362 68.1982C28.8717 61.2351 58.0714 29.8505 108.136 12.7934C85.8102 6.28182 58.4875 6.14561 58.4875 6.14561L22.6362 68.1982Z" fill="white"/>
</mask>
<g mask="url(#mask1_172_2876)">
<path d="M22.6365 68.1992C28.872 61.2361 58.0717 29.8515 108.137 12.7944C85.8104 6.28279 58.4877 6.14658 58.4877 6.14658L22.6365 68.1992Z" fill="url(#paint1_linear_172_2876)"/>
</g>
<mask id="mask2_172_2876" style="mask-type:luminance" maskUnits="userSpaceOnUse" x="106" y="6" width="91" height="47">
<path d="M196.967 52.8945C191.564 30.2718 178.148 6.47168 178.148 6.47168L106.485 6.06305C115.622 8.03333 157.35 17.8512 196.967 52.8945Z" fill="white"/>
</mask>
<g mask="url(#mask2_172_2876)">
<path d="M196.967 52.8955C191.564 30.2727 178.148 6.47265 178.148 6.47265L106.485 6.06403C115.622 8.03431 157.35 17.8521 196.967 52.8955Z" fill="url(#paint2_linear_172_2876)"/>
</g>
<mask id="mask3_172_2876" style="mask-type:luminance" maskUnits="userSpaceOnUse" x="201" y="46" width="37" height="103">
<path d="M206.413 148.569C223.303 132.578 237.205 109.057 237.205 109.057L201.723 46.7939C204.587 55.6919 216.95 96.7375 206.413 148.569Z" fill="white"/>
</mask>
<g mask="url(#mask3_172_2876)">
<path d="M206.414 148.571C223.303 132.58 237.205 109.059 237.205 109.059L201.723 46.7959C204.587 55.6939 216.95 96.7395 206.414 148.571Z" fill="url(#paint3_linear_172_2876)"/>
</g>
<mask id="mask4_172_2876" style="mask-type:luminance" maskUnits="userSpaceOnUse" x="128" y="149" width="86" height="63">
<path d="M128.163 204.879C150.475 211.443 177.795 211.643 177.795 211.643L213.788 149.672C207.538 156.62 178.266 187.938 128.163 204.879Z" fill="white"/>
</mask>
<g mask="url(#mask4_172_2876)">
<path d="M128.163 204.879C150.475 211.443 177.795 211.643 177.795 211.643L213.788 149.672C207.538 156.62 178.266 187.938 128.163 204.879Z" fill="url(#paint4_linear_172_2876)"/>
</g>
<mask id="mask5_172_2876" style="mask-type:luminance" maskUnits="userSpaceOnUse" x="40" y="165" width="91" height="47">
<path d="M59.3302 211.574L130.994 211.643C121.846 209.715 80.0704 200.093 40.2898 165.238C45.7995 187.835 59.3302 211.574 59.3302 211.574Z" fill="white"/>
</mask>
<g mask="url(#mask5_172_2876)">
<path d="M59.3302 211.574L130.994 211.643C121.846 209.715 80.0704 200.093 40.2898 165.238C45.7995 187.835 59.3302 211.574 59.3302 211.574Z" fill="url(#paint5_linear_172_2876)"/>
</g>
<mask id="mask6_172_2876" style="mask-type:luminance" maskUnits="userSpaceOnUse" x="102" y="80" width="50" height="58">
<path d="M102.153 137.606C102.153 137.606 122.792 114.318 151.363 109.002C118.641 100.908 102.153 80.3825 102.153 80.3825C111.948 110.819 102.153 137.606 102.153 137.606Z" fill="white"/>
</mask>
<g mask="url(#mask6_172_2876)">
<path d="M102.153 137.607C102.153 137.607 122.792 114.319 151.363 109.003C118.641 100.909 102.153 80.3835 102.153 80.3835C111.948 110.82 102.153 137.607 102.153 137.607Z" fill="url(#paint6_linear_172_2876)"/>
</g>
<mask id="mask7_172_2876" style="mask-type:luminance" maskUnits="userSpaceOnUse" x="123" y="122" width="12" height="16">
<path d="M123.397 126.827C128.735 131.116 129.808 131.81 134.746 137.038C132.451 129.275 132.588 127.177 131.627 122.074C128.388 123.81 127.391 124.218 123.397 126.827Z" fill="white"/>
</mask>
<g mask="url(#mask7_172_2876)">
<path d="M123.397 126.828C128.735 131.117 129.808 131.811 134.746 137.039C132.451 129.275 132.588 127.178 131.627 122.075C128.388 123.811 127.391 124.219 123.397 126.828Z" fill="url(#paint7_linear_172_2876)"/>
</g>
<mask id="mask8_172_2876" style="mask-type:luminance" maskUnits="userSpaceOnUse" x="86" y="104" width="15" height="10">
<path d="M86.3247 108.974C94.1965 110.868 95.9466 112.034 100.842 113.754C100.96 110.08 101.107 109.013 100.842 104.25C94.4596 106.727 93.3214 107.311 86.3247 108.974Z" fill="white"/>
</mask>
<g mask="url(#mask8_172_2876)">
<path d="M86.3247 108.974C94.1965 110.868 95.9466 112.034 100.842 113.754C100.96 110.08 101.107 109.013 100.842 104.25C94.4596 106.727 93.3214 107.311 86.3247 108.974Z" fill="url(#paint8_linear_172_2876)"/>
</g>
<mask id="mask9_172_2876" style="mask-type:luminance" maskUnits="userSpaceOnUse" x="123" y="80" width="12" height="16">
<path d="M123.499 91.1949C126.628 93.1242 127.48 93.7791 131.742 95.9229C132.77 89.1519 132.831 87.8757 134.869 80.9797C129.309 86.8644 127.426 87.801 123.499 91.1949Z" fill="white"/>
</mask>
<g mask="url(#mask9_172_2876)">
<path d="M123.499 91.1959C126.627 93.1251 127.48 93.78 131.742 95.9238C132.77 89.1529 132.831 87.8767 134.869 80.9807C129.309 86.8654 127.426 87.802 123.499 91.1959Z" fill="url(#paint9_linear_172_2876)"/>
</g>
<path opacity="0.982" fill-rule="evenodd" clip-rule="evenodd" d="M288.467 0C288.732 0.0389891 288.982 0.132264 289.214 0.279826C289.365 0.616177 289.583 0.896002 289.866 1.1193C292.564 0.659829 295.269 0.628862 297.981 1.02603C300.183 1.45603 301.24 2.79285 301.153 5.03687C301.114 6.87588 300.584 8.55484 299.567 10.0737C299.181 10.5532 298.715 10.9263 298.168 11.193C296.843 10.2726 295.599 9.24657 294.437 8.11495C292.982 7.2016 291.396 6.85965 289.68 7.08892C283.852 6.97979 278.597 8.62759 273.916 12.0325C269.682 15.7199 267.909 20.3525 268.6 25.9305C269.669 29.0911 271.502 31.7337 274.103 33.8589C277.931 37.0008 282.097 39.6125 286.602 41.6941C288.247 41.637 289.74 42.0722 291.079 42.9999C294.359 45.6566 297.25 48.6725 299.754 52.0476C303.126 56.967 304.307 62.3769 303.298 68.2775C302.804 75.6416 299.726 81.6422 294.064 86.2796C288.777 90.0896 283.024 93.0434 276.808 95.1408C276.356 94.9819 275.89 94.8574 275.409 94.7677C273.435 95.4753 271.445 96.1282 269.439 96.7265C267.357 96.9115 265.275 97.0669 263.19 97.1929C260.763 97.191 259.27 96.0096 258.713 93.6484C258.285 91.7409 258.16 89.8133 258.339 87.8653C258.522 86.5837 259.237 86.1173 260.485 86.4662C261.572 86.8544 262.505 87.4762 263.283 88.3317C264.96 88.8367 266.671 89.1786 268.413 89.3577C274.864 89.2141 280.927 87.6284 286.602 84.6007C289.607 83.0247 291.939 80.755 293.597 77.7916C296.961 72.382 297.398 66.7234 294.903 60.8155C293.517 57.6272 291.495 54.9222 288.84 52.7005C287.719 51.8603 286.475 51.2695 285.109 50.9283C284.792 50.1441 284.294 49.4911 283.617 48.9695C280.421 47.3409 277.25 45.662 274.103 43.9327C270.891 42.0899 267.999 39.8202 265.428 37.1236C261.266 31.7565 260.147 25.7869 262.07 19.2147C264.145 13.0352 268.094 8.46473 273.916 5.50324C275.116 4.84117 276.36 4.28152 277.647 3.82429C278.642 3.76217 279.638 3.69986 280.632 3.63774C281.067 3.20251 281.503 2.7671 281.938 2.33188C284.246 1.85991 286.421 1.08255 288.467 0Z" fill="#FEFFFE"/>
<path opacity="0.984" fill-rule="evenodd" clip-rule="evenodd" d="M513.634 0.559216C515.352 0.428817 516.968 0.770951 518.484 1.58524C518.965 2.42398 519.4 3.29461 519.79 4.19695C519.742 4.43219 519.617 4.61874 519.417 4.7566C518.702 4.84988 518.298 5.25414 518.204 5.96918C516.122 13.4784 514.973 21.127 514.753 28.9149C514.734 30.614 514.891 32.293 515.22 33.9518C515.544 34.2118 515.917 34.3363 516.339 34.3249C517.365 34.1072 518.391 33.8895 519.417 33.6719C520.176 33.4936 520.893 33.5869 521.562 33.9518C521.704 34.4547 521.922 34.9211 522.215 35.3509C522.974 35.4737 523.721 35.4115 524.454 35.1644C526.114 34.3308 527.856 33.8333 529.677 33.6719C530.047 34.0243 530.483 34.273 530.983 34.4181C533.296 34.2142 535.255 34.9295 536.859 36.5635C537.233 37.3718 537.233 38.1803 536.859 38.9886C536.455 39.3929 536.052 39.797 535.647 40.2012C535.46 40.3256 535.274 40.3256 535.087 40.2012C534.929 40.0106 534.742 39.8552 534.528 39.7348C533.684 40.6861 532.628 41.3078 531.356 41.6003C531.14 40.9556 530.735 40.7691 530.144 41.0407C528.746 40.4088 527.284 40.0048 525.76 39.8281C521.902 39.9359 518.046 39.9048 514.194 39.7348C513.343 46.3005 512.783 52.8919 512.515 59.5092C512.188 65.5717 513.401 71.2927 516.152 76.6719C518.044 79.4957 520.562 81.5789 523.708 82.9213C524.586 83.7384 525.519 84.4846 526.506 85.1599C528.774 85.6856 531.074 85.9343 533.408 85.9061C534.731 86.9424 534.886 88.155 533.875 89.5439C532.886 91.3666 531.735 93.0766 530.423 94.674C530.269 94.7052 530.112 94.7361 529.957 94.7673C528.47 94.4701 526.978 94.1591 525.48 93.8345C525.403 93.9198 525.31 93.9821 525.2 94.0211C524.269 93.6508 523.523 93.06 522.961 92.2488C516.106 89.311 511.162 84.4296 508.131 77.6046C507.392 75.0412 506.896 72.4295 506.638 69.7695C505.702 59.7331 505.918 49.7215 507.291 39.7348C506.856 39.7041 506.454 39.5798 506.079 39.3617C505.89 39.6462 505.797 39.9572 505.799 40.2945C505 40.4896 504.502 40.2098 504.306 39.455C499.913 39.2931 495.561 38.7956 491.248 37.9626C490.528 37.7423 489.875 37.4003 489.289 36.9366C489.132 35.1645 489.972 34.2628 491.807 34.2316C495.956 34.6157 499.935 33.9939 503.747 32.3661C505.422 31.5613 506.573 30.2866 507.198 28.5418C508.106 24.675 508.666 20.7574 508.877 16.7891C508.89 13.6717 509.015 10.5624 509.25 7.46159C509.875 4.5861 511.337 2.28537 513.634 0.559216Z" fill="#FEFFFE"/>
<path opacity="0.976" fill-rule="evenodd" clip-rule="evenodd" d="M396.107 7.27497C396.547 7.24456 396.982 7.27552 397.413 7.36824C398.72 8.20921 400.09 8.95541 401.517 9.60685C403.162 10.783 403.442 12.2445 402.356 13.9908C401.239 15.5434 399.746 16.4762 397.879 16.789C396.989 16.6583 396.15 16.3784 395.361 15.9496C394.023 14.8614 392.81 13.6488 391.723 12.3118C391.574 11.4893 391.76 10.7431 392.282 10.0732C393.335 8.79032 394.609 7.85756 396.107 7.27497Z" fill="#FEFFFE"/>
<path opacity="0.972" fill-rule="evenodd" clip-rule="evenodd" d="M476.697 7.27497C477.137 7.24456 477.572 7.27552 478.003 7.36824C479.187 8.1469 480.43 8.83098 481.734 9.4203C483.782 10.6359 484.123 12.2215 482.76 14.1773C481.646 15.6345 480.183 16.5051 478.376 16.789C476.34 16.4394 474.691 15.4446 473.432 13.8042C472.891 13.2013 472.425 12.5484 472.033 11.8455C472.535 10.4079 473.406 9.22628 474.645 8.30099C475.296 7.85103 475.98 7.50909 476.697 7.27497Z" fill="#FEFFFE"/>
<path opacity="0.984" fill-rule="evenodd" clip-rule="evenodd" d="M325.404 23.1317C326.587 23.1008 327.77 23.1317 328.949 23.225C329.48 23.7024 329.635 24.2932 329.415 24.9972C328.669 27.9367 328.357 30.9215 328.482 33.9517C328.669 34.0761 328.855 34.2003 329.042 34.3248C333.558 32.6535 338.129 31.1299 342.753 29.7543C344.966 29.2092 347.204 28.8051 349.469 28.5417C354.62 29.5642 359.532 31.2743 364.207 33.6718C365.792 35.6306 367.378 37.5894 368.964 39.5482C370.822 42.835 371.723 46.3795 371.669 50.1816C371.092 59.4819 367.423 67.2858 360.662 73.5937C359.916 74.0912 359.17 74.5885 358.424 75.0861C358.011 75.631 357.668 76.2218 357.398 76.8583C354.312 79.4728 351.111 81.9289 347.79 84.227C346.966 84.564 346.158 84.9371 345.365 85.3463C344.537 86.2869 343.604 87.0953 342.567 87.7715C341.66 88.1142 340.727 88.3629 339.769 88.5177C338.202 89.6482 336.586 90.7054 334.918 91.6891C333.159 92.3036 331.355 92.7388 329.508 92.9949C328.258 93.3413 327.605 94.1808 327.549 95.5134C326.884 104.612 327.132 113.691 328.296 122.75C328.624 124.029 329.154 125.211 329.881 126.294C329.105 127.411 328.079 128.219 326.803 128.719C326.669 128.615 326.512 128.553 326.337 128.533C324.727 129.228 323.048 129.663 321.3 129.839C318.231 129.173 317.328 127.37 318.595 124.429C319.328 122.789 319.795 121.079 319.994 119.299C319.916 118.492 319.852 117.683 319.808 116.873C320.151 109.695 320.308 102.512 320.274 95.3268C320.323 93.2326 319.638 91.4292 318.222 89.9168C318.185 88.7393 318.339 87.5891 318.688 86.4656C318.485 86.0806 318.453 85.6764 318.595 85.2531C319.83 83.8801 320.421 82.2634 320.367 80.4028C320.045 78.0821 320.138 75.7813 320.647 73.5004C320.683 67.0293 320.837 60.5624 321.113 54.0991C321.212 51.333 320.994 48.5968 320.461 45.8909C320.19 44.994 319.599 44.652 318.688 44.8649C317.308 45.4435 315.879 45.6922 314.398 45.6111C313.829 45.1048 313.331 44.5451 312.905 43.9321C313.206 43.4441 313.579 43.0087 314.025 42.6263C315.457 41.723 316.95 40.9147 318.502 40.2011C319.257 39.7159 319.91 39.1251 320.461 38.4289C320.643 38.0808 320.737 37.7077 320.74 37.3096C320.418 36.0069 320.354 34.701 320.554 33.392C320.328 32.7624 319.987 32.2027 319.528 31.7131C319.257 30.1673 319.194 28.6128 319.341 27.0493C319.533 26.2617 319.936 25.6087 320.554 25.0905C322.154 24.3408 323.77 23.6878 325.404 23.1317ZM339.955 35.2575C343.253 35.2598 346.55 35.353 349.842 35.5373C350.939 36.3585 352.182 36.7316 353.573 36.6566C358.733 39.3948 361.811 43.6545 362.808 49.4354C363.615 52.878 363.49 56.298 362.434 59.6956C361.241 64.6137 359.063 69.0288 355.905 72.9407C354.741 74.2292 353.467 75.3795 352.081 76.3919C349.189 78.366 346.268 80.2936 343.313 82.175C339.985 84.355 336.379 84.977 332.493 84.0405C331.605 83.8498 330.736 83.601 329.881 83.2943C329.353 82.7669 328.732 82.3938 328.016 82.175C327.792 82.0065 327.637 81.789 327.549 81.5221C327.596 72.6617 327.689 63.8005 327.829 54.9386C327.824 52.3547 327.762 49.7741 327.643 47.1968C327.546 43.8472 328.542 40.8936 330.628 38.3356C331.797 37.4083 333.103 36.7242 334.545 36.2835C336.353 35.8172 338.155 35.475 339.955 35.2575Z" fill="#FEFFFE"/>
<path opacity="0.983" fill-rule="evenodd" clip-rule="evenodd" d="M426.888 26.8627C428.291 26.7559 429.66 26.9113 430.992 27.3291C432.249 28.4904 432.59 29.8895 432.018 31.5265C431.102 34.0686 430.481 36.6803 430.152 39.3616C430.027 43.7767 430.027 48.1916 430.152 52.6067C430.451 53.1774 430.917 53.5505 431.551 53.726C433.337 50.0029 435.7 46.6761 438.64 43.7456C441.136 41.7198 443.935 40.2274 447.035 39.2684C449.708 38.3509 452.445 37.7913 455.243 37.5894C455.648 37.9937 456.051 38.3977 456.456 38.802C456.741 39.5876 456.805 40.3959 456.642 41.2271C455.631 42.9999 454.824 44.8654 454.217 46.8237C453.835 47.369 453.432 47.8976 453.005 48.4093C452.32 48.5338 451.637 48.5338 450.953 48.4093C449.679 47.5861 448.311 46.9643 446.849 46.5438C445.948 46.4265 445.078 46.5509 444.237 46.9169C441.851 47.8726 439.831 49.3339 438.174 51.3009C436.585 53.3281 435.217 55.5046 434.07 57.8302C433.784 59.6229 433.1 61.2397 432.018 62.6805C431.956 63.4888 431.893 64.2973 431.831 65.1056C430.79 67.7545 430.479 70.4906 430.898 73.3139C430.309 73.8701 430.029 74.554 430.059 75.3659C430.309 78.5431 430.898 81.6523 431.831 84.6934C432.158 85.4074 432.531 86.0913 432.951 86.7455C433.493 88.9921 432.654 90.3291 430.432 90.7563C430.059 91.1294 429.686 91.5025 429.313 91.8756C426.677 92.281 424.065 92.1566 421.478 91.5025C421.31 90.2877 421.403 89.0751 421.758 87.8648C422.612 85.4421 423.172 82.9548 423.436 80.4028C424.324 64.1803 423.733 48.0127 421.664 31.8996C421.677 30.5822 422.175 29.4939 423.157 28.635C424.345 27.8845 425.589 27.2939 426.888 26.8627Z" fill="#FEFFFE"/>
<path opacity="0.986" fill-rule="evenodd" clip-rule="evenodd" d="M395.734 27.2362C396.717 27.0588 397.37 27.4319 397.692 28.3555C398.058 29.822 398.215 31.3144 398.159 32.8328C397.426 42.9009 396.773 52.9746 396.2 63.054C396.012 68.7249 396.198 74.3835 396.76 80.0301C397.06 82.2972 397.806 84.4114 398.998 86.3728C399.487 87.7685 399.829 89.1988 400.024 90.6634C400.175 90.7209 400.299 90.8142 400.397 90.9433C400.06 91.3915 399.625 91.7025 399.092 91.876C397.847 92.3735 396.605 92.8709 395.361 93.3684C393.648 93.624 391.937 93.9038 390.23 94.2079C388.94 94.1842 387.945 93.6246 387.246 92.5289C387.003 89.9342 387.315 87.3846 388.178 84.8804C388.77 83.9506 389.143 82.9557 389.298 81.8956C389.514 77.7631 389.669 73.6278 389.764 69.4899C389.482 59.3866 389.266 49.2817 389.111 39.1755C388.453 38.1082 387.893 36.9889 387.432 35.8176C386.999 34.2311 387.061 32.6764 387.619 31.1538C387.882 30.9137 388.162 30.696 388.458 30.5009C390.9 29.4034 393.325 28.3151 395.734 27.2362Z" fill="#FEFFFE"/>
<path opacity="0.985" fill-rule="evenodd" clip-rule="evenodd" d="M476.137 27.236C477.542 27.0541 478.32 27.6758 478.469 29.1015C478.639 30.2454 478.732 31.3958 478.749 32.5526C478.06 42.1576 477.407 51.7649 476.79 61.3747C476.512 68.1739 476.76 74.9521 477.536 81.7087C478.116 83.3666 478.801 84.9834 479.588 86.559C480.129 88.1432 480.471 89.7289 480.614 91.3161C477.572 93.0353 474.307 93.9991 470.82 94.2076C468.858 94.1201 467.77 93.1251 467.556 91.2228C467.716 89.2017 468.057 87.212 468.582 85.2532C468.809 84.4855 469.182 83.8015 469.701 83.2011C470.067 78.6079 470.223 74.0062 470.167 69.3964C470.003 59.3687 469.848 49.3573 469.701 39.3617C469.251 38.3993 468.753 37.4666 468.209 36.5635C467.625 34.9735 467.502 33.3567 467.835 31.7132C468.044 31.3169 468.324 30.975 468.675 30.6871C471.173 29.5145 473.661 28.3642 476.137 27.236Z" fill="#FEFFFE"/>
<path opacity="0.964" fill-rule="evenodd" clip-rule="evenodd" d="M614.744 61.3749C615.675 61.3409 616.267 61.7762 616.517 62.6807C616.642 63.2404 616.642 63.8 616.517 64.3597C615.908 64.5867 615.535 65.022 615.397 65.6656C615.101 66.0008 614.728 66.1873 614.278 66.2252C613.806 65.9903 613.31 65.8038 612.786 65.6656C611.799 65.9722 610.773 66.1276 609.707 66.1319C609.547 66.2605 609.424 66.4159 609.334 66.5983C608.596 66.7526 607.849 66.8459 607.096 66.8781C605.734 67.684 604.367 68.4924 602.992 69.3033C600.197 72.3094 598.302 75.8227 597.302 79.8434C596.877 82.2835 596.378 84.7086 595.809 87.1189C595.61 88.1718 595.765 89.1666 596.276 90.1037C596.735 90.5997 597.265 90.7241 597.862 90.4768C598.052 90.6982 598.27 90.8848 598.514 91.0364C599.223 90.8303 599.938 90.8303 600.66 91.0364C602.727 90.5852 604.811 90.3053 606.909 90.197C608.094 90.3053 608.56 90.9583 608.308 92.1557C607.842 92.3734 607.501 92.7154 607.282 93.1818C607.044 93.3094 606.825 93.2782 606.629 93.0885C606.305 93.3485 605.932 93.473 605.51 93.4616C602.372 93.0648 599.233 93.0027 596.089 93.275C595.442 100.945 595.66 108.593 596.742 116.221C596.89 116.61 597.108 116.952 597.395 117.247C597.287 117.413 597.225 117.6 597.209 117.806C597.477 118.703 597.725 119.605 597.955 120.511C597.893 120.698 597.83 120.885 597.768 121.071C596.755 121.679 595.823 122.394 594.97 123.216C594.597 123.341 594.224 123.341 593.851 123.216C593.315 122.619 592.724 122.09 592.078 121.631C592.017 121.693 591.953 121.755 591.892 121.817C591.567 121.405 591.349 120.939 591.239 120.418C592.293 119.373 592.666 118.129 592.358 116.687C592.597 113.648 592.72 110.601 592.731 107.546C592.597 102.849 592.411 98.1539 592.172 93.4616C591.496 93.5302 590.843 93.5302 590.213 93.4616C590.01 94.1132 589.791 94.1442 589.56 93.5549C588.097 93.6103 587.911 93.1129 589 92.0625C589.521 91.5539 590.142 91.2429 590.866 91.1297C591.017 90.5561 591.39 90.2451 591.985 90.197C592.209 90.0285 592.364 89.811 592.452 89.544C592.931 87.3925 593.241 85.2161 593.384 83.0148C594.422 77.1778 596.878 72.0476 600.753 67.6243C601.943 66.6198 603.188 65.687 604.484 64.8261C606.409 64.0224 608.336 63.2141 610.267 62.4009C611.633 62.1524 613 61.9036 614.371 61.6547C614.543 61.6029 614.666 61.5096 614.744 61.3749Z" fill="#FEFFFE"/>
<path opacity="0.966" fill-rule="evenodd" clip-rule="evenodd" d="M565.681 90.8504C568.498 90.7408 571.297 90.8962 574.076 91.3168C576.125 91.8741 577.927 92.8691 579.486 94.3016C580.781 95.6773 581.868 97.2008 582.751 98.8721C584.295 107.814 581.217 114.623 573.517 119.299C570.41 120.818 567.146 121.346 563.723 120.885C558.902 121.683 554.737 120.377 551.224 116.968C548.452 113.621 547.644 109.828 548.799 105.588C549.049 104.278 549.483 103.034 550.104 101.857C550.243 100.525 550.739 99.3433 551.597 98.3125C555.169 93.7435 559.863 91.2562 565.681 90.8504ZM565.868 93.0891C571.575 92.7842 575.71 95.1473 578.274 100.178C579.613 103.726 579.363 107.146 577.527 110.438C576.082 112.95 574.28 115.188 572.117 117.154C571.858 116.957 571.578 116.926 571.278 117.061C564.73 120.126 559.04 118.976 554.209 113.61C551.455 107.594 552.231 102.091 556.54 97.0999C557.527 96.3276 558.585 95.7056 559.712 95.2344C560.52 95.2517 561.327 95.2517 562.137 95.2344C562.991 93.8409 564.236 93.1256 565.868 93.0891Z" fill="#FEFFFE"/>
<path opacity="0.984" fill-rule="evenodd" clip-rule="evenodd" d="M372.415 103.349C373.057 103.312 373.678 103.405 374.28 103.629C375.368 104.344 376.457 105.059 377.545 105.774C377.67 106.334 377.67 106.893 377.545 107.453C376.965 109.153 376.56 110.895 376.332 112.676C375.75 113.155 375.409 113.777 375.306 114.542C375.036 123.729 375.566 132.87 376.892 141.965C376.34 143.397 376.526 144.735 377.452 145.976C377.765 146.048 378.077 146.018 378.384 145.882C378.8 146.328 379.299 146.67 379.877 146.908C381.147 147.082 382.235 147.61 383.141 148.494C383.272 148.826 383.365 149.167 383.421 149.52C383.192 150.727 383.005 151.94 382.862 153.158C381.541 153.273 380.267 153.583 379.037 154.091C378.636 154.04 378.263 153.915 377.918 153.717C376.961 163.62 377.148 173.507 378.478 183.379C378.937 184.42 379.496 185.416 380.157 186.364C380.095 188.007 380.002 189.656 379.877 191.307C380.052 194.518 380.332 197.721 380.716 200.915C380.866 202.291 380.834 203.661 380.623 205.019C380.845 205.582 381.248 205.955 381.836 206.138C381.811 206.696 381.811 207.256 381.836 207.817C382.63 209.675 383.408 211.541 384.167 213.414C382.214 216.206 380.224 218.975 378.198 221.715C377.062 221.952 376.004 221.765 375.027 221.155C374.659 221.062 374.286 221.032 373.907 221.062C373.312 219.275 372.752 217.471 372.228 215.652C372.71 214.456 372.989 213.212 373.068 211.921C373.193 208.563 373.193 205.205 373.068 201.847C372.892 200.09 372.458 198.411 371.762 196.811C370.971 196.958 370.193 197.176 369.43 197.464C361 204.224 351.549 206.213 341.074 203.433C333.879 200.954 329.682 195.949 328.482 188.416C327.689 184.45 327.628 180.471 328.296 176.477C328.533 175.518 328.842 174.585 329.228 173.678C330.918 170.111 332.659 166.567 334.452 163.045C336.411 160.34 338.742 158.008 341.447 156.049C343.373 154.589 345.363 153.221 347.417 151.945C349.122 151.46 350.801 150.9 352.454 150.266C355.485 148.852 358.595 147.64 361.781 146.628C362.179 146.731 362.459 146.981 362.621 147.375C364.313 146.369 366.147 145.839 368.124 145.789C368.872 145.448 369.275 144.858 369.337 144.017C369.378 134.46 368.757 124.946 367.471 115.475C367.037 114.542 366.352 113.858 365.419 113.422C365.137 111.816 365.076 110.199 365.233 108.572C365.481 106.535 366.632 105.447 368.684 105.308C369.863 104.501 371.105 103.848 372.415 103.349ZM361.035 152.038C363.218 152.232 365.395 152.481 367.564 152.785C367.509 153.176 367.57 153.55 367.751 153.904C368.415 154.135 369.068 154.383 369.71 154.65C370.63 164.455 371.064 174.279 371.016 184.125C371.047 186.983 370.674 189.781 369.896 192.52C369.111 193.617 368.147 194.518 367.005 195.225C361.354 198.053 355.385 199.111 349.096 198.396C342.087 197.048 337.455 192.975 335.198 186.177C333.633 180.247 334.192 174.525 336.877 169.015C340.38 161.78 345.822 156.587 353.2 153.438C354.89 152.876 356.631 152.628 358.424 152.691C359.319 152.468 360.188 152.249 361.035 152.038Z" fill="#FEFFFE"/>
<path opacity="0.983" fill-rule="evenodd" clip-rule="evenodd" d="M280.259 110.624C281.705 110.391 282.389 111.012 282.311 112.489C282.199 113.145 282.074 113.797 281.938 114.448C284.24 121.758 286.883 128.94 289.866 135.995C297.778 154.741 306.048 173.335 314.677 191.773C316.815 194.702 318.153 197.967 318.688 201.567C318.55 203.073 317.743 204.006 316.263 204.366C313.53 205.196 310.825 206.099 308.148 207.071C307.421 206.391 307.016 205.552 306.936 204.552C307.023 203.397 307.271 202.278 307.682 201.194C305.581 191.43 302.005 182.257 296.955 173.678C295.972 172.792 294.821 172.512 293.504 172.838C292.956 173.157 292.428 173.501 291.918 173.865C288.805 172.454 285.54 171.988 282.124 172.465C280.626 172.529 279.134 172.652 277.647 172.838C276.153 173.182 274.661 173.523 273.17 173.865C272.489 173.84 271.959 173.529 271.584 172.932C270.015 173.458 268.398 173.768 266.734 173.865C263.846 173.434 260.955 173.404 258.059 173.771C254.729 174.406 251.433 175.152 248.172 176.01C247.82 176.439 247.447 176.844 247.053 177.222C246.725 177.105 246.445 176.918 246.213 176.663C242.714 183.787 239.417 191.001 236.326 198.303C236.097 202.144 234.977 205.688 232.968 208.936C232.494 209.598 231.873 210.033 231.103 210.242C227.892 209.246 224.628 208.468 221.309 207.91C221.154 207.755 220.997 207.598 220.843 207.444C220.626 206.313 220.813 205.257 221.402 204.272C222.456 203.157 223.575 202.101 224.76 201.101C226.338 198.008 228.327 195.21 230.73 192.706C233.358 188.632 235.845 184.466 238.192 180.207C239.115 178.849 240.109 177.543 241.177 176.29C242.078 173.245 243.383 170.383 245.094 167.708C251.534 157.942 257.503 147.869 263.003 137.487C266.288 132.971 269.15 128.183 271.584 123.123C272.133 121.74 272.474 120.309 272.61 118.832C273.144 118.915 273.61 118.791 274.009 118.459C274.095 115.8 275.244 113.748 277.461 112.303C277.694 112.404 277.91 112.528 278.114 112.676C278.809 111.949 279.524 111.265 280.259 110.624ZM275.409 126.481C275.834 126.501 276.207 126.656 276.528 126.947C278.77 130.095 280.606 133.484 282.031 137.114C285.878 146.414 289.577 155.773 293.131 165.19C292.81 166.07 292.187 166.63 291.265 166.869C290.59 167.085 289.905 167.272 289.213 167.429C287.754 167.481 286.324 167.699 284.923 168.081C283.501 167.998 282.07 167.966 280.632 167.988C280.022 167.904 279.432 167.748 278.86 167.522C278.489 168.113 277.959 168.425 277.274 168.455C276.037 168.227 274.793 168.04 273.543 167.895C270.439 168.32 267.329 168.693 264.216 169.014C261.557 168.63 258.882 168.412 256.194 168.361C255.358 168.199 254.548 167.951 253.769 167.615C252.993 167.089 252.713 166.375 252.929 165.47C253.584 163.601 254.392 161.797 255.354 160.06C261.033 150.883 266.38 141.492 271.398 131.891C272.469 129.868 273.804 128.065 275.409 126.481Z" fill="#FEFFFE"/>
<path opacity="0.983" fill-rule="evenodd" clip-rule="evenodd" d="M614.931 114.356C616.647 114.358 618.264 114.763 619.781 115.569C620.137 116.421 620.51 117.26 620.9 118.087C620.88 118.263 620.818 118.419 620.714 118.554C619.874 118.647 619.408 119.113 619.315 119.953C617.244 127.432 616.093 135.049 615.863 142.805C615.886 144.469 616.043 146.119 616.33 147.749C616.565 148.139 616.906 148.325 617.356 148.309C618.294 148.111 619.227 147.893 620.154 147.656C620.969 147.501 621.777 147.533 622.579 147.749C622.798 148.184 623.014 148.62 623.232 149.055C623.443 149.323 623.723 149.448 624.072 149.428C626.208 148.727 628.353 148.042 630.508 147.376C630.825 147.77 631.23 148.049 631.72 148.215C633.485 148.227 635.164 148.6 636.757 149.335C638.675 150.797 638.736 152.353 636.944 153.998C636.757 154.092 636.571 154.185 636.384 154.278C636.136 154.092 635.886 153.905 635.638 153.719C634.886 154.638 633.922 155.198 632.746 155.398C632.334 155.321 632.084 155.073 632 154.651C631.752 154.776 631.502 154.899 631.254 155.024C629.989 154.396 628.652 153.991 627.243 153.812C623.262 153.879 619.281 153.847 615.304 153.719C614.453 160.283 613.893 166.876 613.625 173.493C613.263 179.804 614.601 185.712 617.636 191.215C619.529 193.607 621.861 195.443 624.631 196.719C625.372 197.271 626.055 197.894 626.683 198.584C627.547 199.095 628.48 199.407 629.482 199.517C631.22 199.685 632.961 199.81 634.705 199.89C635.849 200.992 635.942 202.205 634.985 203.528C634.145 204.71 633.399 205.953 632.746 207.259C632.241 207.828 631.681 208.326 631.067 208.751C629.39 208.328 627.68 207.986 625.937 207.725C625.532 207.428 625.098 207.18 624.631 206.979C624.391 206.552 624.079 206.179 623.699 205.86C619.626 204.335 616.237 201.879 613.532 198.491C611.931 196.472 610.562 194.295 609.427 191.961C608.567 189.227 608.008 186.428 607.749 183.567C606.833 173.719 607.051 163.893 608.401 154.092C608.157 153.676 607.784 153.426 607.282 153.346C606.911 153.969 606.351 154.219 605.603 154.092C605.635 153.845 605.573 153.627 605.417 153.439C602.559 153.191 599.699 152.941 596.835 152.693C594.85 152.495 592.923 152.06 591.052 151.387C590.075 150.53 590.075 149.659 591.052 148.775C591.511 148.484 592.007 148.297 592.545 148.215C594.966 148.016 597.391 147.891 599.82 147.842C602.99 147.516 605.633 146.18 607.749 143.831C608.202 142.947 608.513 142.014 608.681 141.033C609.83 134.552 610.39 128.023 610.36 121.445C611 118.479 612.524 116.116 614.931 114.356Z" fill="#FEFFFE"/>
<path opacity="0.984" fill-rule="evenodd" clip-rule="evenodd" d="M731.711 140.659C733.124 140.568 734.429 140.879 735.629 141.592C736.327 142.679 736.545 143.86 736.282 145.136C735.155 148.213 734.47 151.384 734.23 154.65C734.125 158.695 734.189 162.736 734.416 166.776C734.825 167.371 735.355 167.558 736.002 167.336C738.054 162.333 741.349 158.383 745.889 155.49C750.176 153.272 754.717 151.966 759.507 151.572C760.91 152.541 761.313 153.815 760.72 155.397C759.782 156.839 759.097 158.393 758.668 160.06C758.285 160.939 757.758 161.717 757.082 162.392C756.461 162.517 755.838 162.517 755.217 162.392C753.941 161.568 752.573 160.946 751.113 160.527C750.143 160.364 749.21 160.489 748.314 160.9C745.996 161.786 744.037 163.185 742.438 165.097C740.774 167.241 739.343 169.543 738.147 172C737.862 173.792 737.177 175.408 736.095 176.85C736.034 177.658 735.97 178.467 735.909 179.275C734.907 181.415 734.691 183.624 735.256 185.898C735.23 186.78 734.95 187.558 734.416 188.23C734.349 191.869 734.909 195.414 736.095 198.863C736.375 199.546 736.748 200.169 737.215 200.728C737.41 202.055 737.069 203.206 736.189 204.18C735.776 204.374 735.34 204.499 734.883 204.553C734.448 204.987 734.012 205.424 733.577 205.859C731.586 205.984 729.598 205.984 727.607 205.859C726.969 205.762 726.348 205.607 725.742 205.392C725.68 205.019 725.617 204.646 725.555 204.273C726.111 201.393 726.764 198.533 727.514 195.692C728.098 184.622 728.098 173.554 727.514 162.486C727.214 157.492 726.716 152.516 726.022 147.561C725.43 145.358 726.02 143.586 727.794 142.245C729.042 141.51 730.348 140.98 731.711 140.659Z" fill="#FEFFFE"/>
<path opacity="0.984" fill-rule="evenodd" clip-rule="evenodd" d="M538.072 141.592C538.592 141.583 538.936 141.833 539.098 142.338C539.223 143.706 539.223 145.075 539.098 146.442C538.594 148.267 538.128 150.101 537.699 151.946C537.919 153.597 538.852 154.343 540.497 154.184C541.062 153.556 541.685 152.996 542.362 152.505C545.797 152.656 548.968 151.849 551.877 150.08C552.789 149.798 553.722 149.612 554.675 149.52C555.268 149.131 555.828 148.694 556.354 148.215C559.687 147.618 563.045 147.431 566.427 147.655C574.481 148.868 579.238 153.5 580.699 161.553C581.503 167.573 581.564 173.604 580.885 179.648C580.51 182.963 580.012 186.258 579.393 189.536C578.3 194.716 577.119 199.878 575.848 205.019C575.542 206.383 575.511 207.752 575.755 209.123C575.208 211.815 573.561 213.183 570.811 213.227C568.606 213.177 566.741 212.369 565.215 210.802C564.338 209.233 564.4 207.679 565.401 206.139C566.459 204.708 567.515 203.279 568.573 201.848C571.332 195.852 573.134 189.571 573.983 183.006C574.753 177.29 574.815 171.569 574.169 165.844C573.449 160.756 570.869 156.994 566.427 154.557C558.342 152.007 550.757 153.065 543.668 157.729C542.402 158.682 541.501 159.895 540.963 161.366C540.031 162.051 539.098 162.734 538.165 163.418C537.389 171.979 536.923 180.561 536.766 189.162C536.645 191.908 537.173 194.52 538.352 196.998C538.51 198.749 538.449 200.49 538.165 202.221C537.876 203.754 536.975 204.655 535.46 204.926C535.309 205.262 535.091 205.542 534.807 205.765C534.225 205.571 533.634 205.542 533.035 205.672C532.425 206.008 531.804 206.288 531.169 206.512C530.278 206.243 529.531 205.745 528.931 205.019C526.83 204.879 526.116 203.823 526.785 201.848C527.082 201.068 527.517 200.385 528.091 199.796C529.651 192.356 530.459 184.831 530.516 177.223C530.709 171.06 530.584 164.903 530.143 158.755C530.039 155.733 529.229 152.934 527.718 150.36C527.373 148.782 527.839 147.508 529.117 146.536C529.849 146.189 530.595 145.877 531.356 145.603C532.209 144.767 533.016 143.898 533.781 142.991C535.316 142.78 536.745 142.314 538.072 141.592Z" fill="#FEFFFE"/>
<path opacity="0.982" fill-rule="evenodd" clip-rule="evenodd" d="M447.408 142.152C449.953 141.883 452.316 142.411 454.497 143.738C454.964 143.956 455.305 144.297 455.523 144.764C455.768 146.139 455.581 147.444 454.964 148.681C454.191 149.44 453.32 150.062 452.352 150.547C442.62 165.741 435.219 182.033 430.152 199.423C429.363 201.145 428.492 202.824 427.541 204.46C427.246 204.978 427.216 205.508 427.447 206.045C427.1 206.452 426.697 206.794 426.235 207.072C426.069 207.538 425.852 207.973 425.582 208.377C424.142 207.78 422.679 207.78 421.198 208.377C420.59 207.458 419.905 206.586 419.146 205.766C418.415 203.68 417.482 201.69 416.348 199.796C416.42 199.272 416.545 198.776 416.721 198.304C412.969 188.685 409.113 179.109 405.155 169.575C403.453 165.674 401.649 161.82 399.745 158.009C398.672 156.421 397.553 154.867 396.387 153.345C395.67 151.481 395.919 149.739 397.133 148.122C397.931 146.616 399.082 145.465 400.584 144.67C401.144 144.545 401.703 144.545 402.263 144.67C403.964 145.842 405.675 146.868 407.393 147.748C407.884 150.334 408.195 152.946 408.326 155.584C410.242 163.443 413.04 170.968 416.721 178.156C417.226 178.598 417.661 179.096 418.027 179.649C419.041 185.038 421.59 189.515 425.675 193.08C426.597 192.468 427 191.599 426.888 190.469C427.335 190.489 427.679 190.302 427.914 189.909C428.397 189.131 428.832 188.321 429.22 187.484C431.956 180.643 434.691 173.804 437.428 166.963C438.193 165.021 439.187 163.217 440.413 161.553C440.7 160.63 440.948 159.697 441.159 158.755C442.25 156.505 442.996 154.142 443.397 151.666C443.771 151.293 444.144 150.92 444.517 150.547C444.871 148.873 444.996 147.194 444.89 145.51C445.067 143.874 445.907 142.754 447.408 142.152Z" fill="#FEFFFE"/>
<path opacity="0.983" fill-rule="evenodd" clip-rule="evenodd" d="M659.889 142.898C661.684 143.27 663.486 143.611 665.299 143.924C666.034 144.456 666.594 145.141 666.978 145.977C664.896 147.933 663.249 150.202 662.035 152.786C661.574 154.067 661.201 155.373 660.915 156.703C659.727 164.279 658.608 171.866 657.558 179.462C657.1 183.93 657.599 188.284 659.05 192.521C662.844 200.192 668.473 201.964 675.933 197.838C680.815 195.008 685.385 191.743 689.644 188.044C691.485 185.13 692.668 181.958 693.189 178.53C693.733 174.819 694.013 171.088 694.028 167.337C693.98 162.602 693.763 157.875 693.375 153.159C693.267 151.334 692.582 149.78 691.323 148.495C691.055 147.514 690.993 146.518 691.137 145.51C692.304 144.536 693.579 144.35 694.961 144.95C697.519 143.835 700.192 143.182 702.983 142.992C703.154 143.061 703.309 143.154 703.449 143.272C703.813 144.167 704.031 145.1 704.102 146.07C702.919 149.898 701.832 153.752 700.837 157.636C699.8 163.098 699.738 168.57 700.651 174.052C700.986 175.657 701.671 177.088 702.703 178.343C702.833 178.675 702.927 179.016 702.983 179.369C702.565 180.61 701.973 181.761 701.21 182.82C700.848 183.876 700.694 184.966 700.744 186.085C700.996 189.12 701.401 192.135 701.957 195.133C702.621 195.758 703.212 196.442 703.729 197.185C703.55 197.698 703.206 198.071 702.703 198.304C702.507 199.981 702.445 201.66 702.516 203.341C702.559 203.893 702.777 204.359 703.169 204.74C700.751 205.941 698.201 206.563 695.521 206.605C694.123 206.514 693.439 205.768 693.468 204.367C693.754 202.86 693.911 201.335 693.935 199.796C694.282 199.188 694.498 198.535 694.588 197.838C694.433 196.688 694.276 195.537 694.121 194.386C693.857 192.566 692.83 191.851 691.043 192.241C690.484 192.553 689.924 192.862 689.364 193.174C685.465 196.763 681.298 199.998 676.865 202.874C675.399 203.576 673.97 204.322 672.575 205.113C669.715 205.548 666.853 205.984 663.993 206.419C662.531 206.68 661.164 206.432 659.889 205.673C657.643 204.251 655.623 202.541 653.826 200.543C651.394 196.407 650.181 191.93 650.189 187.111C651.411 174.23 653.151 161.419 655.412 148.682C655.095 147.698 654.722 146.734 654.293 145.79C654.345 145.529 654.47 145.312 654.666 145.137C656.425 144.38 658.168 143.633 659.889 142.898Z" fill="#FEFFFE"/>
<path opacity="0.981" fill-rule="evenodd" clip-rule="evenodd" d="M492.926 143.27C498.366 142.774 502.998 144.453 506.825 148.307C507.767 149.695 508.513 151.188 509.063 152.785C509.716 155.766 510.337 158.75 510.929 161.739C510.986 162.817 511.141 163.875 511.395 164.91C511.374 165.483 511.281 166.043 511.115 166.589C510.688 167.141 510.438 167.763 510.369 168.455C510.201 168.679 509.983 168.833 509.716 168.921C508.606 169.121 507.487 169.246 506.358 169.294C506.069 169.677 505.696 169.957 505.239 170.134C504.103 169.574 502.983 169.014 501.881 168.455C501.053 168.651 500.213 168.774 499.362 168.828C497.529 168.634 495.695 168.447 493.859 168.268C492.171 168.408 490.492 168.625 488.822 168.921C485.869 168.99 482.914 168.958 479.961 168.828C476.184 168.725 472.482 169.192 468.861 170.227C468.104 170.471 467.701 170.999 467.649 171.813C467.356 172.264 466.951 172.514 466.436 172.559C465.591 178.193 466.244 183.666 468.395 188.975C468.781 189.903 469.373 190.68 470.167 191.307C472.79 193.245 475.463 195.111 478.189 196.904C482.258 198.971 486.58 199.997 491.154 199.982C495.344 199.571 499.542 199.292 503.746 199.142C504.892 198.476 506.075 197.853 507.291 197.277C508.011 196.879 508.757 196.786 509.529 196.997C511.039 201.017 510.106 204.345 506.731 206.977C505.222 207.888 503.636 208.045 501.974 207.444C492.208 207.755 482.726 206.231 473.525 202.873C466.248 199.924 461.741 194.607 460 186.923C458.952 182.004 459.013 177.09 460.187 172.186C461.508 166.416 463.871 161.131 467.276 156.329C468.806 154.488 470.516 152.84 472.406 151.385C475.357 149.257 478.404 147.266 481.547 145.416C482.666 145.354 483.786 145.291 484.905 145.229C487.515 144.229 490.19 143.576 492.926 143.27ZM488.449 147.934C492.109 147.807 495.529 148.647 498.71 150.453C500.519 151.52 501.7 153.074 502.254 155.116C502.97 157.292 503.127 159.498 502.72 161.739C502.062 163.08 500.974 163.795 499.456 163.884C489.884 164.354 480.308 164.603 470.727 164.63C469.235 164.233 468.955 163.455 469.887 162.299C471.505 160.308 473.12 158.319 474.738 156.329C476.012 154.805 477.411 153.406 478.935 152.132C480.676 151.074 482.418 150.018 484.159 148.96C485.619 148.641 487.05 148.3 488.449 147.934Z" fill="#FEFFFE"/>
<path opacity="0.981" fill-rule="evenodd" clip-rule="evenodd" d="M799.243 143.272C801.937 143.025 804.548 143.369 807.078 144.298C808.414 144.934 809.72 145.618 810.996 146.35C813.227 148.101 814.687 150.37 815.38 153.159C815.971 155.492 816.406 157.856 816.685 160.248C816.93 160.955 817.148 161.669 817.338 162.393C817.072 162.882 817.101 163.348 817.432 163.792C817.557 164.6 817.557 165.409 817.432 166.217C816.958 166.971 816.614 167.779 816.406 168.642C815.146 169.092 813.84 169.308 812.488 169.295C812.204 169.611 811.895 169.89 811.555 170.135C810.781 169.555 809.912 169.213 808.944 169.109C808.714 168.818 808.434 168.599 808.104 168.456C807.244 168.65 806.375 168.775 805.492 168.829C803.688 168.642 801.886 168.456 800.082 168.269C798.366 168.435 796.655 168.654 794.952 168.922C790.787 168.881 786.621 168.881 782.453 168.922C779.98 169.096 777.555 169.532 775.178 170.228C774.301 170.484 773.835 171.075 773.779 172C773.365 172.269 772.991 172.58 772.659 172.933C772.361 174.383 772.143 175.843 772.007 177.317C772.363 180.904 773.079 184.419 774.152 187.857C774.504 188.872 775.001 189.805 775.644 190.655C778.021 192.45 780.416 194.222 782.826 195.972C787.255 198.688 792.074 200.026 797.284 199.983C801.536 199.565 805.795 199.285 810.063 199.143C811.182 198.522 812.301 197.899 813.421 197.278C814.145 196.972 814.891 196.847 815.659 196.905C817.09 200.375 816.531 203.484 813.98 206.232C812.251 207.71 810.292 208.115 808.104 207.445C804.071 207.801 800.06 207.645 796.072 206.979C792.061 206.251 788.082 205.38 784.132 204.367C772.952 201.582 766.766 194.463 765.571 183.007C765.19 173.021 767.925 164.005 773.779 155.957C775.439 154.172 777.211 152.524 779.095 151.013C781.782 149.137 784.517 147.333 787.304 145.603C788.595 145.376 789.9 145.251 791.221 145.23C792.29 144.708 793.409 144.335 794.579 144.111C796.155 143.803 797.709 143.523 799.243 143.272ZM794.579 147.935C798.638 147.807 802.369 148.833 805.772 151.013C807.781 152.827 808.871 155.095 809.037 157.822C809.162 159.003 809.162 160.186 809.037 161.367C808.472 162.986 807.322 163.826 805.586 163.885C796.075 164.35 786.561 164.6 777.043 164.632C775.758 164.473 775.353 163.82 775.831 162.673C778.575 159.119 781.53 155.729 784.692 152.506C785.252 152.071 785.811 151.635 786.371 151.2C787.798 150.549 789.167 149.803 790.475 148.961C791.867 148.614 793.234 148.271 794.579 147.935Z" fill="#FEFFFE"/>
<defs>
<linearGradient id="paint0_linear_172_2876" x1="0.000113814" y1="120.179" x2="35.8584" y2="120.179" gradientUnits="userSpaceOnUse">
<stop stop-color="#D91920"/>
<stop offset="0.403588" stop-color="#F1481D"/>
<stop offset="0.508021" stop-color="#F1481D"/>
<stop offset="0.538819" stop-color="#F1481D"/>
<stop offset="1" stop-color="#F79011"/>
</linearGradient>
<linearGradient id="paint1_linear_172_2876" x1="22.6363" y1="37.1733" x2="108.137" y2="37.1733" gradientUnits="userSpaceOnUse">
<stop stop-color="#D91920"/>
<stop offset="0.403588" stop-color="#F1481D"/>
<stop offset="0.508021" stop-color="#F1481D"/>
<stop offset="0.538819" stop-color="#F1481D"/>
<stop offset="1" stop-color="#F79011"/>
</linearGradient>
<linearGradient id="paint2_linear_172_2876" x1="106.485" y1="29.48" x2="196.966" y2="29.48" gradientUnits="userSpaceOnUse">
<stop stop-color="#D91920"/>
<stop offset="0.403588" stop-color="#F1481D"/>
<stop offset="0.508021" stop-color="#F1481D"/>
<stop offset="0.538819" stop-color="#F1481D"/>
<stop offset="1" stop-color="#F79011"/>
</linearGradient>
<linearGradient id="paint3_linear_172_2876" x1="201.723" y1="97.6828" x2="237.206" y2="97.6828" gradientUnits="userSpaceOnUse">
<stop stop-color="#D91920"/>
<stop offset="0.403588" stop-color="#F1481D"/>
<stop offset="0.508021" stop-color="#F1481D"/>
<stop offset="0.538819" stop-color="#F1481D"/>
<stop offset="1" stop-color="#F79011"/>
</linearGradient>
<linearGradient id="paint4_linear_172_2876" x1="128.162" y1="180.657" x2="213.79" y2="180.657" gradientUnits="userSpaceOnUse">
<stop stop-color="#D91920"/>
<stop offset="0.403588" stop-color="#F1481D"/>
<stop offset="0.508021" stop-color="#F1481D"/>
<stop offset="0.538819" stop-color="#F1481D"/>
<stop offset="1" stop-color="#F79011"/>
</linearGradient>
<linearGradient id="paint5_linear_172_2876" x1="40.291" y1="188.44" x2="130.993" y2="188.44" gradientUnits="userSpaceOnUse">
<stop stop-color="#D91920"/>
<stop offset="0.403588" stop-color="#F1481D"/>
<stop offset="0.508021" stop-color="#F1481D"/>
<stop offset="0.538819" stop-color="#F1481D"/>
<stop offset="1" stop-color="#F79011"/>
</linearGradient>
<linearGradient id="paint6_linear_172_2876" x1="102.153" y1="108.996" x2="151.363" y2="108.996" gradientUnits="userSpaceOnUse">
<stop stop-color="#D91920"/>
<stop offset="0.403588" stop-color="#F1481D"/>
<stop offset="0.508021" stop-color="#F1481D"/>
<stop offset="0.538819" stop-color="#F1481D"/>
<stop offset="1" stop-color="#F79011"/>
</linearGradient>
<linearGradient id="paint7_linear_172_2876" x1="123.397" y1="129.557" x2="134.746" y2="129.557" gradientUnits="userSpaceOnUse">
<stop stop-color="#D91920"/>
<stop offset="0.403588" stop-color="#F1481D"/>
<stop offset="0.508021" stop-color="#F1481D"/>
<stop offset="0.538819" stop-color="#F1481D"/>
<stop offset="1" stop-color="#F79011"/>
</linearGradient>
<linearGradient id="paint8_linear_172_2876" x1="86.3254" y1="109.002" x2="100.991" y2="109.002" gradientUnits="userSpaceOnUse">
<stop stop-color="#D91920"/>
<stop offset="0.403588" stop-color="#F1481D"/>
<stop offset="0.508021" stop-color="#F1481D"/>
<stop offset="0.538819" stop-color="#F1481D"/>
<stop offset="1" stop-color="#F79011"/>
</linearGradient>
<linearGradient id="paint9_linear_172_2876" x1="123.499" y1="88.4522" x2="134.869" y2="88.4522" gradientUnits="userSpaceOnUse">
<stop stop-color="#D91920"/>
<stop offset="0.403588" stop-color="#F1481D"/>
<stop offset="0.508021" stop-color="#F1481D"/>
<stop offset="0.538819" stop-color="#F1481D"/>
<stop offset="1" stop-color="#F79011"/>
</linearGradient>
</defs>
</svg>
