<svg width="16" height="16" viewBox="0 0 16 16" fill="none" xmlns="http://www.w3.org/2000/svg">
<path d="M4.95108 13.8155C4.95108 14.0482 4.76251 14.2367 4.52988 14.2367H2.73696C2.50433 14.2367 2.31577 14.0482 2.31577 13.8155V6.29968C2.31577 6.06705 2.50433 5.87849 2.73696 5.87849H4.52988C4.76251 5.87849 4.95108 6.06705 4.95108 6.29968V13.8155ZM3.63342 5.17C2.69273 5.17 1.93014 4.40741 1.93014 3.46672C1.93014 2.52602 2.69273 1.76343 3.63342 1.76343C4.57411 1.76343 5.33671 2.52602 5.33671 3.46672C5.33671 4.40741 4.57416 5.17 3.63342 5.17ZM14.3208 13.8495C14.3208 14.0633 14.1474 14.2367 13.9336 14.2367H12.0096C11.7958 14.2367 11.6224 14.0633 11.6224 13.8495V10.3241C11.6224 9.79819 11.7766 8.01955 10.248 8.01955C9.06228 8.01955 8.82178 9.23698 8.77349 9.78332V13.8495C8.77349 14.0633 8.60013 14.2367 8.38622 14.2367H6.52544C6.31158 14.2367 6.13818 14.0633 6.13818 13.8495V6.26575C6.13818 6.05189 6.31158 5.87849 6.52544 5.87849H8.38622C8.60008 5.87849 8.77349 6.05189 8.77349 6.26575V6.92146C9.21315 6.26165 9.86655 5.75237 11.2578 5.75237C14.3385 5.75237 14.3208 8.63053 14.3208 10.2119V13.8495Z" fill="white"/>
</svg>
