<svg version="1.1"
	 xmlns="http://www.w3.org/2000/svg" xmlns:xlink="http://www.w3.org/1999/xlink" xmlns:a="http://ns.adobe.com/AdobeSVGViewerExtensions/3.0/"
	 x="0px" y="0px" width="1595.4px" height="289px" viewBox="0 0 1595.4 289" enable-background="new 0 0 1595.4 289"
	 xml:space="preserve">
<defs>
</defs>
<g>
	<path fill="#FFFFFF" d="M1283,289c-0.4-45.1-0.8-90.3-1.3-135.4c-0.3-31.8-0.7-63.6-0.9-95.4c0-4.2-0.8-6.6-5.6-6.6
		c-14.5,0-28.9-0.4-43.4,0c-9.5,0.2-18.9,1.6-28.5,1.5c6.5-1.6,13-3.5,19.5-4.7c57.2-10.8,113.5-6.8,169.2,9.7
		c3.7,1.1,5,2.7,4.8,6.6c-0.3,7.3-0.1,14.6-0.1,22.3c2,0,3.7,0,6,0c0-7.8,0.2-15.4-0.1-23c-0.1-3.5,1.2-4.8,4.4-5.8
		c43.3-13.1,87.5-18.6,132.6-14.5c17.3,1.5,34.4,5.6,51.6,8.6c1.4,0.2,2.8,0.8,4.1,1.8c-9.3-0.8-18.7-2.1-28-2.3
		c-14.9-0.3-29.9,0.1-44.8,0.2c-3.8,0-4.6,2-4.6,5.4c0.1,14-0.1,28-0.2,42c-0.3,40.1-0.7,80.3-1,120.4c-0.2,23.1-0.5,46.3-0.7,69.4
		c-26.3,0-52.7,0-79,0c-0.2-1.3-0.6-2.6-0.7-3.9c-0.8-15.1-1.5-30.3-2.2-45.4c-1.7-33.2-3.5-66.5-5.3-99.7
		c-0.7-12.5-1.2-24.9-2.1-37.4c-0.1-1.6-1.9-4.2-3.2-4.3c-4-0.6-8.2-0.2-10.7-0.2c-3.1,4.2-4.9,8.1-8,10.4c-2.4,1.8-3,3.5-3,6.1
		c0.2,33.3,0.3,66.6,0.4,99.9c0,3.4,0.5,5.1,4.6,6c17.1,4,26.8,22,21.2,38.4c-5.8,17-23.8,25.2-40.3,18.2
		c-11.1-4.7-18.9-16.5-18.4-27.9c0.6-12.6,10.6-25.3,23.6-28.6c4.5-1.1,4.9-3.2,4.8-6.9c-0.2-20.5-0.4-41-0.5-61.4
		c-0.1-14,0-28,0-42c-5.3-1.8-8.7-4.8-9.5-10.2c-0.1-0.9-1.9-2.1-3-2.3c-1.9-0.3-4,0.2-6,0c-4.8-0.6-6.3,1.6-6.5,6.2
		c-1,21.6-2.2,43.2-3.3,64.8c-1.5,28.8-3.2,57.5-4.6,86.3c-0.6,11.3-0.8,22.6-1.2,33.9C1336.3,289,1309.7,289,1283,289z M1400,224.3
		c-12.6-0.1-25.6,12.8-25.7,25.3c0,13.5,11.6,25.2,25.1,25.3c13.5,0.1,25.6-12,25.5-25.6C1424.8,236,1413.2,224.4,1400,224.3z
		 M1405.7,98.5c-0.5-3.9-2.8-6-6.5-6.4c-3.5-0.3-6.6,3.1-6.4,6.8c0.2,3.9,2.4,6.1,6.3,6.2C1402.8,105.3,1405.8,102.1,1405.7,98.5z"
		/>
	<path fill="#FFFFFF" d="M0,102c3-0.1,6-0.2,9-0.2c40.8,0,81.6,0.1,122.5-0.1c5,0,6.5,1.3,6.4,6.5c-0.4,13-0.1,25.9-0.1,39.3
		c-2.1,0.1-3.9,0.2-5.6,0.3c-1-5.6-1.5-11.1-2.9-16.3c-1-4-2.7-7.9-4.8-11.4c-4.4-7.6-11.3-11.1-19.9-11.1
		c-15.8,0-31.7,0.1-47.5-0.1c-3.9,0-5.2,1.3-5.2,5.2c0.1,21.2,0.2,42.3,0,63.5c0,4.3,1.6,5.5,5.5,5.3c6.2-0.2,12.3,0,18.5-0.1
		c11.8-0.2,19.3-6.2,22.1-17.7c0.7-2.9,0.9-5.9,1.2-8.9c0.3-2.3-0.8-5.3,3.3-5.3c4,0,3.4,2.8,3.4,5.2c0,14.7,0,29.3,0,44
		c0,6,0,12,0,18c0,2.4-0.2,4.2-3.4,4.3c-3.2,0-3.4-1.9-3.3-4.3c0.3-7.2-0.9-14-5.5-19.7c-3.5-4.3-7.8-7.3-13.5-7.5
		c-8-0.3-16-0.2-24-0.4c-3.2-0.1-4.4,1.2-4.3,4.4c0.1,26,0.1,52,0,78c0,3.4,1.1,4.7,4.6,4.6c18.7-0.1,37.3,0,56-0.1
		c9.1-0.1,15.8-4.7,20.7-12c6.7-10.1,9.7-21.5,11.1-33.2c0.5-4.4,2.2-5.4,6.4-4.1c0,18.7,0,37.5,0,56.9c-2.2,0-4.2,0-6.1,0
		c-46,0-92,0-138,0c-2.2,0-4.3,0.2-6.5,0.3c0-2.7,0-5.3,0-8c7.6,0,15.2,0,23.3,0c0.2-2.6,0.4-5.1,0.4-7.5c0-34.3,0-68.5,0-102.8
		c0-17.5-0.1-34.9,0.1-52.4c0-4-1.1-5.7-5.4-5.5C12.3,109.1,6.2,109,0,109C0,106.7,0,104.3,0,102z"/>
	<path fill="#FFFFFF" d="M1516,0c9.1,1,18.1,1.9,27.2,3.1c17.6,2.3,34.9,6.1,51.6,12.5c-9.5-1.4-19-3-28.5-4.2
		c-26-3.3-52.1-4.1-78.2-2c-29.5,2.4-58.3,7.7-86,18.1c-1.6,0.6-4,0.2-5.7-0.4c-32.4-11.6-65.8-17.2-100.1-18.4
		c-30.6-1.1-60.8,1.4-90.8,7.1c-0.3,0.1-0.7-0.1-2.4-0.2c5.1-1.7,9-3.1,12.9-4.2c4.1-1.2,8.3-2.5,12.6-3.1
		c16.6-2.5,33.2-4.8,49.8-7.2c1.6-0.2,3.2-0.6,4.8-1c13,0,26,0,39,0c1.3,0.3,2.6,0.8,3.8,0.9c24.2,1.3,47.8,5.7,71.3,11.3
		c2.4,0.6,5.2,0,7.7-0.5c15.5-2.8,31-6,46.5-8.6c8.5-1.4,17.1-2.1,25.7-3.1C1490,0,1503,0,1516,0z"/>
	<path fill="#FFFFFF" d="M487.5,217.7c0-3.2,0-5.5,0-8.1c27.6,0,55,0,82.8,0c0,2.5,0,5,0,8.1c-7,0-13.8,0.3-20.5-0.1
		c-4.5-0.2-6.1,1.2-6,5.8c0.2,18.3,0,36.7,0,55c0,1.8,0,3.6,0,5.2c-0.6,0.4-0.9,0.8-1.1,0.8c-29.6,1.1-59.2,2.7-88.8,3.2
		c-18.2,0.3-34.4-6.1-47.2-19.3c-10.3-10.7-16.1-24-18.8-38.4c-5-27.1-4.8-54,4.1-80.3c10-29.3,30.5-46.4,61.5-49.3
		c13.3-1.2,26.9-0.4,40.4,0.1c13.3,0.4,26.6,1.7,39.9,2.2c4.2,0.2,5.3,1.6,5.3,5.7c-0.2,12.2,0,24.3-0.2,36.5c0,1.8-1,4.7-2.2,5.1
		c-3.6,1.2-3.6-2.2-4.3-4.5c-4.6-14.7-12.5-27-26.6-34.1c-26.3-13.4-67.9-6.9-81.1,31.6c-6.8,19.7-8.3,40-7.4,60.5
		c0.6,15.2,2.9,30.1,9.2,44.1c10.7,23.9,29.3,35.3,55.3,32.7c9-0.9,17.8-3.6,26.7-5.6c3.1-0.7,4-2.8,4-5.9c-0.1-15.5-0.1-31,0-46.5
		c0-3.5-1.1-4.7-4.6-4.6C501.1,217.9,494.5,217.7,487.5,217.7z"/>
	<path fill="#FFFFFF" d="M699.9,147.4c-2.1,0-3.5,0-5.1,0c-1.1-5.7-1.9-11.4-3.4-17c-4.4-16.1-11.9-21.6-28.4-21.6
		c-14.5,0-29,0-43.5,0c-2.7,0-4.9-0.1-4.8,3.8c0.1,22.5,0.1,45,0.1,67.5c0,0.6,0.2,1.3,0.4,1.9c10.2,0,20.4,0.9,30.4-0.3
		c8.5-1,15.3-11.5,15.8-21.9c0.1-1.8,0.2-3.7,0-5.5c-0.2-2.6,1-3.6,3.5-3.6c2.6,0,4,0.6,3.9,3.7c-0.1,21.3-0.1,42.7,0,64
		c0,2.8-1,3.8-3.8,3.9c-2.8,0-3.8-1.1-3.7-3.9c0.1-3.2,0.3-6.4-0.2-9.5c-1.9-10.7-9.6-17.8-20.5-18.4c-8.4-0.4-16.9-0.1-25.6-0.1
		c0,29,0,57.5,0,86.8c2.1,0,4,0,5.9,0c16.5,0,33-0.4,49.5,0.1c14.6,0.5,24-6.4,29-19.1c3.9-9.8,6.2-20.2,9.4-30.7c0.9,0,2.6,0,4.7,0
		c0,19,0,37.7,0,56.8c-1.5,0.1-3,0.3-4.4,0.3c-47,0-94,0-141,0c-2.4,0-5.2,0.8-5.2-3.3c0-2.9,0.7-4.3,4-4.2c5.3,0.2,10.7,0,16,0.1
		c2.5,0,3.8-0.9,3.6-3.5c-0.1-1,0-2,0-3c0-51.8-0.1-103.6,0.1-155.5c0-4.9-1.1-7-6.3-6.5c-4.5,0.4-9,0.3-13.5-0.1
		c-1.3-0.1-2.5-2.1-3.7-3.2c1.2-1.2,2.2-2.7,3.6-3.6c0.8-0.5,2.3-0.1,3.4-0.1c41.2,0,82.3,0,123.5,0c6.5,0,6.6,0,6.6,6.6
		c0,11.2,0,22.3,0,33.5C699.9,143.6,699.9,145.4,699.9,147.4z"/>
	<path fill="#FFFFFF" d="M947,190.6c0,28.8,0,57.2,0,86.3c1.8,0.1,3.5,0.3,5.3,0.3c16.7,0,33.3-0.4,50,0.2
		c14.3,0.5,23.6-6.3,28.8-18.7c3.3-7.7,4.9-16.1,7.2-24.2c0.6-2.2,0.9-4.5,1.3-6.9c2,0,3.8,0,5.8,0c0,19,0,37.7,0,56.8
		c-50,0-99.9,0-150.3,0c-0.1-2.1-0.2-4.2-0.4-7.1c6.5,0,12.6-0.2,18.7,0.1c3.6,0.1,4.9-1,4.9-4.8c-0.1-53-0.1-106,0-159
		c0-3.8-1.4-4.9-5-4.8c-5,0.2-10,0.2-15-0.1c-1.2-0.1-3.4-2.1-3.3-2.9c0.3-1.5,1.7-3,3-3.9c0.9-0.6,2.6-0.2,3.9-0.2c41,0,82,0,123,0
		c6.8,0,6.8,0,6.8,6.8c0,12.8,0,25.6,0,38.7c-2,0-3.6,0-5.3,0c-1.1-5.9-1.8-11.9-3.4-17.6c-4.3-15.2-12.2-20.9-28-20.9
		c-14.7,0-29.3,0-44,0c-3,0-4.6,0.5-4.6,4.1c0.1,22.3,0.1,44.7,0.1,67c0,0.6,0.2,1.3,0.5,3.2c10.3-0.5,20.8-0.1,31-1.7
		c8.4-1.3,14.5-11.6,15-22c0.1-1.7,0.2-3.3,0-5c-0.2-2.5,0.9-4.2,3.3-3.5c1.4,0.4,3.3,2.2,3.4,3.5c0.4,4.6,0.2,9.3,0.2,14
		c0,15,0,30,0,45c0,1.3,0,2.7,0,4c0,2.5-0.1,4.7-3.6,4.7c-3.6,0.1-3.5-2.3-3.3-4.7c0.4-7.9-0.7-15.6-7-21c-3.4-2.8-8-5.3-12.2-5.7
		C965.2,190,956.2,190.6,947,190.6z"/>
	<path fill="#FFFFFF" d="M177.5,285.2c0-19.8,0-39.4,0-59c6.7-2,7-1.5,8.5,4.7c1.8,7.6,3.5,15.3,6.6,22.4
		c9.4,21.5,27.2,29.4,49.8,23.5c24.8-6.5,32.4-29.8,27.4-48.5c-3.1-11.3-11.3-18-21.8-21.5c-8.6-2.9-17.6-4.6-26.4-7
		c-4.5-1.2-9-2.4-13.3-4.1c-23-9-33.1-25.1-31.4-49.8c1.9-26.9,23.4-47.4,50.4-47.4c9.2,0,18.5,1.7,27.7,2.7
		c6.4,0.7,12.8,1.6,19.3,2.1c2.7,0.2,4,0.9,4,3.7c-0.1,14,0,28,0,42.4c-2,0-4.2,0-5.5,0c-2.9-8.4-4.8-16.9-8.6-24.5
		c-13.3-26.6-49.6-22.2-62.3-5.9c-10.5,13.4-7.2,33.2,7.7,43.3c9,6.1,19.3,8.6,29.7,11.1c10,2.4,20.2,4.4,29.7,8
		c17.1,6.4,25.3,19.7,26,37.8c0.4,11.4-0.4,22.6-5,33.2c-9.1,21.3-25.8,32.6-48.2,34.1c-16,1.1-32.2-0.8-48.3-1.2
		C188.2,285,183.1,285.2,177.5,285.2z"/>
	<path fill="#FFFFFF" d="M1208.2,149.5c-2.3,0-3.7,0-5.4,0c-2.8-11.6-7.7-22.1-16.3-30.4c-13.3-13-29.8-16.1-47.6-13.9
		c-24.6,3.2-39.6,17.9-46.2,41c-8.8,30.7-9.7,61.7,0.2,92.3c6.9,21.4,21.2,35.9,43.9,39.5c31.6,5.1,53.5-8.8,63.8-39.2
		c1.7-5.1,1.7-5.1,8-4.2c0,8,0,16.1,0,24.2c0,8,0,16,0,24.6c-2,0.1-3.7,0.2-5.4,0.3c-16.1,0.9-32.2,1.7-48.3,2.6
		c-21.6,1.2-43,1.7-62.6-9.9c-19-11.2-29.9-28.1-34.5-49.1c-6-27.3-4.7-54.3,5.8-80.3c13.5-33.5,43.1-50.8,80.4-48.2
		c19.9,1.4,39.9,2.2,59.8,3.5c1.5,0.1,4.1,1.7,4.1,2.6C1208.2,119.6,1208.2,134.3,1208.2,149.5z"/>
	<path fill="#FFFFFF" d="M784.7,108.7c-0.2,2.6-0.5,4.8-0.5,6.9c0,52,0,104,0,156c0,6.5,0,6.5,6.7,6.5c17.2,0,34.3-0.1,51.5,0
		c9.8,0,17.3-4,22.7-12.1c6-9.1,8.6-19.3,10.2-30c0.4-2.5,0.8-4.9,1.2-7.6c2,0,3.8,0,5.9,0c0,18.6,0,37.1,0,56
		c-50.2,0-100.3,0-150.8,0c0-2,0-3.8,0-6.4c6.1,0,12-0.2,18,0.1c4,0.2,5.2-1.4,5.2-5.2c-0.1-11.8,0-23.7,0-35.5c0-40.3,0-80.7,0-121
		c0-2.4-0.3-4.9-0.4-7.8c-7.7,0-15,0-22.2,0c-1.6-6.5-1.3-7,4.3-7c22.3,0,44.7,0,67,0c1,0,2.4-0.3,2.9,0.2c1.1,1.1,2.4,2.5,2.5,3.9
		c0.1,0.9-1.8,2.7-2.9,2.7C799.1,108.8,792.1,108.7,784.7,108.7z"/>
	<path fill="#FFFFFF" d="M303.8,284.7c-1.1-6.7-0.9-6.9,5-7c6,0,11.9,0,18.5,0c0-2.7,0-4.7,0-6.6c0-51.8-0.1-103.6,0.1-155.4
		c0-5-1.2-6.9-6.3-6.5c-4.6,0.4-9.3,0-14,0.1c-2.6,0-4-0.7-4-3.7c0-2.9,1.2-3.8,3.9-3.8c23.3,0,46.6,0,70,0c2.8,0,4.4,0.9,4.3,4
		c-0.1,3.1-1.9,3.5-4.3,3.4c-6.8,0-13.5,0-20.6,0c0,3.4,0,5.9,0,8.3c0,51.1,0,102.3,0,153.4c0,6.8,0,6.8,6.8,6.8c5,0,10-0.2,15,0.2
		c1.1,0.1,2.8,2.2,2.9,3.5c0,1.1-1.9,3.1-3,3.1C353.3,284.8,328.7,284.7,303.8,284.7z"/>
</g>
</svg>
